<svg width="25" height="25" viewBox="0 0 25 25" fill="none" xmlns="http://www.w3.org/2000/svg">
<path d="M18.825 6.175H18.8365M6.75 1H18.25C21.4256 1 24 3.57436 24 6.75V18.25C24 21.4256 21.4256 24 18.25 24H6.75C3.57436 24 1 21.4256 1 18.25V6.75C1 3.57436 3.57436 1 6.75 1ZM17.1 11.7755C17.2419 12.7326 17.0784 13.71 16.6328 14.5689C16.1872 15.4277 15.4821 16.1241 14.6179 16.5591C13.7536 16.9941 12.7742 17.1455 11.819 16.9918C10.8637 16.8381 9.98123 16.3871 9.29707 15.7029C8.61291 15.0188 8.16189 14.1363 8.00818 13.181C7.85446 12.2258 8.00588 11.2464 8.44088 10.3821C8.87588 9.51788 9.57231 8.8128 10.4311 8.36718C11.29 7.92155 12.2674 7.75808 13.2245 7.9C14.2008 8.04477 15.1046 8.49968 15.8024 9.19755C16.5003 9.89542 16.9552 10.7992 17.1 11.7755Z" stroke="#374709" stroke-width="2" stroke-linecap="round" stroke-linejoin="round"/>
</svg>
