<?xml version="1.0" standalone="no"?>
<!DOCTYPE svg PUBLIC "-//W3C//DTD SVG 20010904//EN"
 "http://www.w3.org/TR/2001/REC-SVG-20010904/DTD/svg10.dtd">
<svg version="1.0" xmlns="http://www.w3.org/2000/svg"
 width="2048.000000pt" height="2048.000000pt" viewBox="0 0 2048.000000 2048.000000"
 preserveAspectRatio="xMidYMid meet">
<metadata>
Created by potrace 1.14, written by Peter Selinger 2001-2017
</metadata>
<g transform="translate(0.000000,2048.000000) scale(0.100000,-0.100000)"
fill="#000000" stroke="none">
<path d="M10436 19794 c5 -15 4 -16 -5 -8 -8 7 -25 9 -44 5 -18 -4 -45 -6 -62
-6 -16 1 -33 -3 -36 -7 -3 -5 -32 -10 -65 -11 -32 -1 -65 -6 -73 -11 -11 -7
-12 -6 -6 5 8 12 6 12 -8 0 -9 -7 -26 -11 -37 -8 -11 3 -20 1 -20 -4 0 -4 -7
-6 -15 -3 -8 4 -22 0 -31 -7 -13 -10 -17 -10 -24 1 -6 9 -13 11 -22 4 -7 -6
-29 -11 -48 -13 -19 -2 -38 -8 -42 -15 -5 -7 -8 -6 -8 4 0 9 -3 11 -8 5 -4 -6
-23 -12 -42 -14 -19 -2 -39 -6 -44 -9 -5 -3 -28 -6 -52 -8 -23 -1 -48 -6 -56
-10 -17 -11 -39 -11 -62 -1 -13 6 -16 6 -12 -2 8 -12 7 -12 -39 -15 -16 0 -34
-7 -38 -14 -7 -10 -12 -10 -23 -1 -11 9 -14 9 -14 -1 0 -7 -8 -10 -20 -7 -10
3 -21 0 -24 -7 -3 -7 -5 -6 -5 3 -1 10 -4 11 -14 3 -7 -6 -30 -13 -50 -15 -20
-2 -40 -6 -43 -10 -3 -3 -12 -3 -20 0 -8 3 -14 1 -14 -4 0 -5 -22 -9 -49 -9
-27 1 -47 -2 -44 -6 2 -5 -3 -8 -11 -8 -26 0 -30 -1 -43 -12 -9 -8 -13 -7 -13
3 0 11 -2 11 -9 1 -4 -7 -19 -14 -32 -14 -13 -1 -29 -6 -36 -11 -7 -5 -17 -6
-23 -2 -5 3 -10 1 -10 -5 0 -6 -4 -9 -9 -5 -5 3 -13 1 -16 -5 -4 -6 -15 -8
-26 -5 -12 4 -19 2 -19 -6 0 -7 -3 -9 -7 -6 -3 4 -12 2 -20 -4 -10 -9 -13 -8
-13 2 0 9 -3 10 -8 4 -4 -5 -18 -16 -31 -23 -19 -11 -22 -11 -15 0 6 10 4 10
-9 -1 -9 -7 -24 -11 -32 -7 -9 3 -13 2 -10 -4 3 -6 -3 -10 -15 -10 -12 0 -19
-4 -15 -9 3 -6 -4 -8 -15 -6 -11 2 -20 0 -20 -5 0 -5 -7 -7 -15 -4 -8 4 -15 1
-15 -7 0 -7 -3 -9 -7 -6 -3 4 -17 0 -31 -9 -17 -11 -22 -12 -16 -3 6 11 5 12
-8 2 -8 -7 -19 -9 -23 -5 -5 4 -5 2 -2 -4 4 -7 -5 -14 -22 -17 -16 -3 -35 -12
-42 -20 -8 -7 -20 -12 -28 -9 -8 3 -11 0 -7 -7 5 -7 1 -9 -8 -5 -9 3 -16 1
-16 -5 0 -6 -3 -11 -7 -10 -16 2 -53 -14 -53 -22 0 -5 -3 -8 -7 -7 -13 3 -94
-38 -88 -44 3 -3 -1 -8 -10 -12 -9 -3 -14 -2 -11 3 4 5 -5 4 -18 -2 -13 -7
-22 -15 -20 -18 6 -10 -26 -20 -38 -12 -6 3 -9 2 -6 -3 7 -11 -17 -35 -26 -27
-3 4 -6 1 -6 -6 0 -7 -5 -9 -12 -5 -6 4 -8 3 -4 -4 3 -6 0 -17 -8 -25 -8 -8
-12 -17 -9 -21 4 -3 1 -6 -5 -6 -7 0 -12 -7 -12 -15 0 -8 -7 -15 -16 -15 -10
0 -14 -6 -10 -15 3 -9 0 -15 -10 -15 -8 0 -13 -4 -10 -9 3 -5 -1 -12 -10 -15
-9 -4 -14 -9 -11 -12 2 -3 -6 -17 -19 -31 -14 -15 -22 -33 -19 -40 2 -8 0 -11
-5 -8 -6 3 -10 -1 -10 -10 0 -9 -4 -14 -9 -10 -6 3 -8 -4 -6 -15 2 -13 -1 -20
-11 -20 -8 0 -12 -5 -9 -10 3 -6 0 -13 -9 -16 -8 -3 -13 -11 -10 -18 3 -7 -4
-21 -16 -31 -11 -10 -20 -24 -20 -32 0 -7 -5 -13 -11 -13 -5 0 -7 -4 -4 -10 3
-5 2 -10 -4 -10 -5 0 -13 -9 -16 -20 -4 -11 -11 -18 -16 -14 -5 3 -9 2 -8 -3
1 -4 1 -13 0 -19 -1 -11 -101 -118 -101 -108 0 3 -7 -1 -15 -8 -34 -31 -43
-36 -49 -31 -3 4 -6 1 -6 -6 0 -7 -4 -9 -10 -6 -5 3 -10 -2 -10 -11 0 -10 -3
-15 -6 -11 -3 3 -17 -6 -31 -21 -13 -15 -22 -21 -18 -15 4 9 1 11 -9 7 -9 -3
-14 -10 -11 -15 3 -4 -5 -13 -17 -20 -13 -6 -35 -25 -50 -41 -16 -16 -28 -26
-28 -21 0 4 -13 -7 -29 -25 -17 -17 -34 -32 -40 -32 -5 0 -13 -9 -16 -20 -4
-11 -10 -18 -15 -15 -5 3 -17 -6 -26 -20 -9 -13 -21 -22 -27 -18 -5 3 -7 2 -4
-4 7 -11 -28 -44 -38 -35 -3 4 -3 -2 1 -12 5 -14 4 -17 -4 -12 -7 4 -12 1 -12
-8 0 -9 -8 -16 -17 -16 -9 0 -14 -3 -10 -6 8 -8 -16 -33 -25 -27 -7 4 -12 -12
-9 -29 0 -5 -6 -8 -14 -8 -14 0 -20 -12 -16 -33 1 -5 -2 -7 -6 -4 -5 2 -16 -4
-25 -15 -10 -10 -16 -18 -13 -18 3 0 0 -6 -7 -14 -7 -8 -16 -12 -19 -10 -7 4
-23 -26 -21 -38 1 -5 -3 -8 -9 -8 -6 0 -17 -7 -25 -15 -9 -8 -13 -15 -9 -15 3
0 -12 -19 -34 -42 -22 -22 -38 -45 -35 -49 3 -5 -3 -6 -12 -2 -12 4 -15 3 -10
-5 4 -7 1 -12 -9 -12 -9 0 -14 -4 -10 -9 3 -6 -3 -14 -12 -20 -10 -6 -15 -11
-10 -11 4 0 -1 -8 -10 -18 -10 -11 -21 -17 -25 -15 -5 2 -8 0 -8 -6 0 -6 -18
-28 -39 -50 -21 -22 -36 -42 -33 -45 3 -3 -2 -6 -11 -6 -11 0 -14 -5 -10 -17
4 -10 2 -14 -4 -10 -6 4 -16 0 -23 -8 -7 -8 -9 -15 -5 -15 4 0 -14 -20 -38
-44 -25 -24 -43 -46 -41 -49 3 -3 -4 -8 -15 -12 -12 -4 -18 -12 -14 -21 3 -9
-1 -14 -12 -14 -11 0 -15 -5 -11 -16 3 -9 2 -12 -5 -8 -6 3 -17 -3 -25 -15 -9
-12 -20 -19 -25 -16 -5 3 -6 -1 -3 -9 3 -9 2 -16 -3 -16 -4 0 -21 -11 -36 -25
-15 -14 -27 -22 -27 -18 -1 4 -7 -3 -15 -17 -8 -14 -14 -19 -15 -12 0 7 -5 10
-10 7 -6 -4 -8 -11 -5 -16 4 -5 -3 -9 -15 -9 -14 0 -19 -4 -14 -12 5 -7 2 -9
-8 -5 -11 4 -18 -1 -21 -14 -3 -10 -13 -19 -22 -19 -10 0 -26 -10 -36 -22 -11
-11 -19 -18 -19 -14 0 4 -12 -5 -27 -19 -15 -14 -33 -25 -40 -25 -7 0 -13 -5
-13 -11 0 -5 -4 -8 -9 -5 -5 3 -12 -1 -15 -10 -3 -8 -10 -12 -16 -9 -5 3 -10
1 -10 -4 0 -6 -7 -11 -15 -11 -8 0 -14 -3 -12 -8 1 -4 0 -7 -3 -8 -18 -3 -50
-27 -45 -34 3 -5 -5 -12 -17 -16 -13 -4 -31 -16 -40 -27 -10 -11 -18 -16 -18
-12 0 5 -6 1 -13 -10 -8 -10 -19 -15 -25 -11 -8 4 -10 2 -6 -8 6 -15 -28 -40
-40 -29 -3 3 -6 -1 -6 -10 0 -9 -7 -17 -15 -17 -9 0 -18 -7 -21 -15 -4 -8 -13
-15 -21 -15 -8 0 -12 -4 -9 -9 3 -5 -2 -15 -11 -22 -14 -12 -16 -12 -8 1 5 8
-6 0 -24 -18 -18 -17 -37 -29 -43 -26 -6 4 -8 3 -5 -3 3 -5 -3 -15 -13 -23
-10 -8 -16 -18 -13 -23 3 -5 0 -8 -8 -5 -7 2 -23 -6 -35 -19 -12 -13 -26 -23
-33 -23 -6 0 -11 -4 -11 -9 0 -5 -10 -13 -22 -17 -12 -3 -29 -14 -37 -23 -12
-13 -14 -13 -7 -1 5 8 -3 3 -17 -13 -15 -15 -30 -28 -34 -30 -5 -1 -7 -5 -6
-9 2 -5 -4 -8 -13 -8 -8 0 -12 -5 -9 -11 4 -6 -2 -13 -14 -16 -11 -3 -19 -8
-17 -12 2 -3 -2 -12 -10 -19 -8 -7 -14 -10 -14 -7 0 4 -7 -1 -16 -9 -8 -9 -19
-14 -24 -11 -4 3 -14 -3 -21 -13 -13 -16 -12 -16 6 -3 13 9 11 5 -5 -11 -14
-14 -28 -23 -33 -21 -4 2 -6 -1 -5 -9 2 -7 -3 -12 -10 -10 -8 1 -11 -2 -7 -8
4 -6 1 -17 -5 -25 -6 -8 -9 -19 -5 -24 4 -7 -1 -8 -11 -4 -11 4 -15 3 -11 -4
4 -6 1 -14 -5 -16 -9 -4 -9 -6 1 -6 11 -1 10 -5 -5 -17 -10 -8 -12 -12 -4 -8
12 7 13 5 3 -8 -7 -8 -10 -18 -6 -21 3 -4 0 -7 -7 -7 -7 0 -11 -3 -7 -6 3 -3
-3 -15 -13 -27 -12 -12 -18 -30 -16 -44 3 -13 1 -21 -4 -18 -5 3 -11 1 -15 -5
-3 -5 0 -10 7 -10 9 0 9 -3 -2 -10 -12 -8 -12 -10 -1 -10 11 0 11 -3 1 -15
-10 -12 -10 -18 0 -30 6 -8 8 -20 4 -26 -5 -8 -3 -9 6 -4 10 6 12 4 7 -8 -3
-10 -2 -17 4 -17 6 0 7 -4 4 -10 -3 -5 -1 -10 5 -10 6 0 8 -4 5 -10 -3 -5 -1
-10 4 -10 6 0 11 -9 11 -21 0 -13 4 -18 12 -13 8 5 9 2 5 -9 -4 -11 -1 -17 7
-17 8 0 16 -9 19 -21 3 -12 10 -18 16 -14 7 4 8 0 4 -11 -4 -11 -2 -15 4 -11
5 3 16 -5 23 -18 7 -14 17 -25 22 -25 4 0 8 -8 8 -17 0 -9 3 -14 6 -10 8 8 34
-18 34 -34 0 -7 3 -9 6 -6 4 4 25 -13 47 -36 22 -23 37 -36 32 -28 -5 10 -4
12 3 7 7 -4 12 -13 12 -21 0 -8 5 -17 12 -21 7 -5 8 -3 3 7 -8 12 -6 12 9 0 9
-8 15 -20 12 -27 -3 -8 0 -11 8 -8 7 3 20 -2 29 -10 9 -9 19 -16 24 -16 5 0
16 -8 25 -17 32 -34 49 -45 63 -39 9 3 12 0 8 -10 -3 -8 1 -14 10 -14 8 0 22
-10 31 -22 9 -13 14 -17 11 -10 -3 6 -2 12 3 12 5 0 12 -10 15 -21 4 -14 11
-20 21 -16 9 4 15 3 13 -1 -1 -4 2 -7 6 -7 5 0 13 -8 18 -17 6 -11 16 -15 26
-11 9 4 14 2 10 -3 -3 -6 -2 -16 4 -24 6 -10 9 -11 9 -2 0 8 6 6 18 -5 11 -10
16 -22 13 -28 -2 -5 3 -4 13 4 15 12 17 12 14 0 -2 -8 3 -13 10 -12 6 2 12 -2
12 -7 0 -6 7 -10 16 -10 9 0 12 -5 8 -12 -5 -8 -2 -9 9 -5 12 4 17 1 17 -10 0
-9 3 -13 7 -10 3 4 12 -1 20 -11 9 -10 11 -11 7 -2 -7 13 -5 13 9 1 9 -7 14
-18 10 -25 -3 -6 -2 -8 2 -3 5 4 18 -1 29 -10 20 -18 20 -17 6 2 -14 20 -14
20 7 1 13 -10 20 -23 17 -27 -3 -5 1 -6 9 -3 8 3 18 0 22 -5 3 -6 11 -8 17 -5
6 4 9 3 6 -2 -7 -10 11 -28 32 -32 8 -2 23 -13 33 -25 10 -12 16 -16 12 -9 -3
6 -1 12 4 12 6 0 11 -7 11 -16 0 -8 5 -12 10 -9 6 3 10 1 10 -4 0 -6 5 -11 11
-11 16 0 59 -36 52 -43 -3 -4 4 -4 16 -2 12 2 19 0 16 -6 -4 -5 -1 -9 5 -9 6
0 8 -5 4 -12 -5 -8 0 -7 11 2 11 9 16 10 11 2 -5 -8 2 -16 19 -22 17 -7 25
-15 22 -25 -4 -9 -1 -12 8 -9 8 3 21 -6 30 -20 10 -14 21 -23 26 -20 8 5 13
-9 10 -28 0 -5 4 -8 10 -8 6 0 8 -7 5 -15 -3 -9 1 -18 8 -21 8 -3 12 -14 9
-27 -4 -18 -3 -20 7 -7 10 12 11 11 7 -7 -3 -13 -1 -23 5 -23 6 0 8 -9 5 -20
-3 -13 0 -20 9 -20 12 0 16 -6 13 -26 0 -3 9 -14 20 -23 12 -10 21 -23 21 -29
0 -6 5 -14 12 -18 7 -5 9 -2 4 7 -5 8 5 -1 22 -18 16 -18 32 -30 36 -26 3 3 6
1 6 -6 0 -7 5 -9 10 -6 6 3 10 -2 11 -12 0 -11 3 -13 6 -5 4 10 8 9 19 -5 8
-11 13 -13 14 -5 0 7 8 4 20 -8 12 -12 25 -18 30 -15 6 4 10 2 10 -3 0 -6 10
-8 22 -4 14 3 19 2 14 -6 -7 -11 7 -16 42 -15 6 1 12 -3 12 -8 0 -5 12 -9 26
-9 14 0 23 -4 19 -10 -4 -6 6 -10 23 -10 38 0 95 -24 85 -35 -5 -5 0 -4 9 3
14 11 18 10 27 -5 8 -14 10 -15 11 -3 0 13 1 13 10 0 5 -8 13 -15 17 -15 20
-1 73 -37 68 -45 -3 -6 1 -7 10 -4 9 4 23 0 33 -9 9 -8 27 -18 40 -21 12 -4
22 -12 22 -17 0 -5 7 -9 15 -9 8 0 31 -9 51 -20 20 -12 39 -19 42 -15 3 3 -1
5 -8 5 -7 0 -11 3 -8 6 4 3 18 -2 32 -11 19 -13 26 -14 26 -5 0 9 6 8 19 -4
13 -12 21 -14 26 -6 4 6 20 9 36 6 16 -2 29 0 29 5 0 6 5 7 10 4 6 -4 8 -12 4
-18 -3 -7 0 -5 8 3 7 8 27 14 45 13 18 -1 36 3 39 9 4 6 10 5 15 -3 6 -10 9
-11 9 -1 0 7 13 12 31 12 17 0 28 4 24 10 -3 6 -1 10 4 10 6 0 11 -6 11 -12 0
-7 5 -5 11 5 6 9 14 15 20 12 5 -4 9 -1 9 6 0 8 5 7 17 -2 15 -12 16 -12 10 4
-4 11 -3 16 3 12 6 -3 10 0 10 7 0 10 2 10 9 -1 6 -9 11 -10 15 -3 4 6 13 9
21 5 8 -3 15 0 15 6 0 7 8 7 26 1 15 -6 23 -6 19 -1 -3 5 -1 12 5 16 5 3 10 1
10 -6 0 -8 4 -8 15 1 12 10 15 10 15 0 0 -10 3 -10 15 0 12 10 15 10 15 -1 0
-9 3 -10 8 -4 8 12 22 13 38 3 6 -4 14 -4 18 -1 4 4 26 8 49 9 62 4 114 11
125 18 6 3 12 0 15 -6 3 -10 8 -10 21 2 20 16 49 23 41 9 -8 -12 28 2 37 15 5
7 8 6 8 -3 0 -10 3 -11 14 -2 10 8 16 9 21 1 3 -6 11 -7 17 -4 6 4 26 10 44
14 27 6 34 5 34 -7 0 -8 -4 -12 -9 -9 -5 3 -12 -1 -15 -10 -3 -8 -10 -13 -15
-10 -5 4 -16 -1 -24 -9 -9 -8 -20 -15 -25 -15 -18 0 -62 -27 -55 -33 3 -4 1
-7 -5 -7 -7 0 -12 6 -12 13 0 8 -3 7 -9 -3 -6 -8 -8 -17 -5 -21 2 -4 -5 -5
-16 -2 -16 4 -19 2 -14 -13 5 -15 4 -16 -4 -5 -8 12 -13 12 -25 2 -12 -9 -16
-9 -21 1 -3 7 -4 3 -2 -10 4 -19 2 -21 -10 -11 -13 10 -18 6 -15 -13 0 -4 -11
-3 -26 3 -21 8 -24 7 -15 -4 11 -13 9 -14 -50 -17 -22 -2 -63 6 -76 14 -7 4
-12 2 -12 -3 0 -13 -22 -10 -32 4 -5 6 -8 5 -8 -4 0 -8 -6 -11 -16 -7 -8 3
-13 2 -10 -3 3 -5 -1 -11 -9 -15 -8 -3 -15 0 -15 6 0 7 -5 6 -15 -2 -9 -7 -15
-8 -15 -2 0 12 -18 11 -39 -2 -7 -5 -16 -5 -20 0 -8 12 -34 17 -27 5 3 -5 -1
-11 -9 -15 -8 -3 -17 0 -21 6 -4 7 -10 5 -16 -6 -7 -12 -14 -14 -27 -6 -14 7
-22 6 -31 -5 -9 -10 -18 -11 -37 -4 -24 9 -25 8 -12 -7 13 -16 12 -16 -10 -5
-19 11 -22 11 -16 0 6 -9 3 -11 -8 -6 -10 3 -17 3 -17 -2 0 -4 -10 -7 -22 -6
-13 1 -26 -2 -29 -7 -3 -5 -17 -10 -30 -11 -13 0 -27 -6 -31 -12 -5 -6 -8 -4
-8 5 0 9 -3 11 -8 5 -10 -14 -55 -39 -47 -26 9 15 -6 13 -29 -4 -16 -12 -22
-12 -35 -2 -12 9 -13 9 -7 0 7 -12 3 -15 -26 -17 -7 -1 -19 -8 -26 -16 -12
-13 -13 -13 -6 0 6 12 5 13 -7 3 -12 -10 -18 -10 -29 0 -10 9 -11 9 -6 0 5 -9
0 -13 -13 -13 -11 0 -23 -5 -26 -11 -4 -6 -13 -8 -21 -5 -7 3 -16 1 -19 -5 -4
-5 -11 -7 -16 -4 -5 4 -9 1 -9 -5 0 -7 -7 -10 -15 -6 -8 3 -19 -2 -24 -12 -7
-12 -10 -13 -11 -3 0 10 -3 11 -13 2 -8 -6 -18 -7 -22 -3 -5 4 -5 -2 -1 -12 5
-16 4 -17 -9 -6 -11 9 -15 9 -15 1 0 -7 -5 -9 -10 -6 -6 3 -13 -1 -16 -10 -5
-12 -9 -13 -21 -4 -8 7 -13 8 -11 3 2 -5 1 -9 -2 -9 -3 0 -20 -11 -39 -25 -19
-13 -31 -17 -27 -9 5 9 3 9 -6 -2 -7 -9 -21 -15 -30 -13 -11 1 -15 -3 -11 -14
4 -9 2 -13 -4 -9 -6 4 -18 1 -26 -7 -8 -8 -17 -12 -21 -9 -3 4 -6 0 -6 -7 0
-7 -3 -11 -6 -7 -3 3 -14 -3 -25 -14 -11 -11 -24 -17 -29 -14 -5 3 -14 -4 -20
-15 -6 -11 -16 -17 -22 -14 -7 4 -8 3 -4 -4 8 -13 -28 -35 -39 -24 -5 4 -5 1
-1 -6 4 -7 1 -15 -8 -18 -9 -3 -13 -11 -10 -16 4 -6 -2 -8 -15 -3 -12 3 -20 3
-19 -2 1 -4 -8 -24 -21 -43 -13 -19 -20 -26 -16 -15 6 20 6 20 -13 0 -11 -11
-18 -23 -15 -27 2 -5 -1 -8 -7 -8 -6 0 -9 -4 -5 -9 3 -6 -4 -8 -16 -6 -18 4
-19 2 -8 -13 7 -9 10 -14 5 -10 -9 8 -36 -14 -30 -24 3 -4 -5 -12 -16 -18 -11
-6 -18 -15 -15 -20 3 -5 -4 -11 -15 -15 -11 -3 -20 -11 -20 -16 0 -6 5 -7 12
-3 7 5 8 3 4 -5 -5 -7 -14 -10 -22 -7 -8 3 -11 0 -7 -10 3 -7 0 -14 -7 -14 -6
0 -8 -5 -4 -12 5 -8 2 -9 -10 -5 -13 5 -15 3 -8 -10 7 -12 3 -22 -14 -38 -16
-15 -20 -25 -14 -33 6 -7 7 -10 3 -7 -9 7 -45 -54 -38 -66 4 -5 -2 -9 -12 -9
-15 0 -16 -2 -3 -10 13 -9 7 -14 -12 -11 -4 0 -5 -5 -2 -13 3 -8 0 -17 -5 -21
-6 -3 -8 -11 -5 -17 5 -8 1 -9 -11 -4 -15 5 -16 4 -6 -8 8 -10 9 -16 1 -21 -6
-3 -8 -11 -5 -16 4 -5 1 -9 -5 -9 -6 0 -8 -4 -5 -10 3 -5 2 -10 -4 -10 -5 0
-11 -12 -13 -27 -2 -18 -8 -27 -17 -25 -12 3 -12 0 -1 -12 10 -14 10 -16 -6
-16 -15 0 -16 -2 -5 -9 12 -7 12 -13 3 -24 -7 -7 -9 -17 -5 -20 3 -4 2 -7 -4
-7 -6 0 -9 -9 -5 -22 4 -17 2 -20 -12 -15 -13 5 -15 3 -7 -12 7 -13 6 -24 -6
-41 -9 -13 -11 -20 -5 -16 8 5 10 2 6 -8 -3 -9 -10 -16 -15 -16 -4 0 -6 -7 -3
-15 4 -8 2 -21 -3 -28 -5 -6 -9 -24 -8 -39 0 -15 -4 -29 -10 -32 -7 -2 -11
-23 -10 -50 1 -25 -1 -43 -5 -41 -4 3 -10 -2 -13 -9 -3 -8 -1 -17 6 -19 8 -3
7 -10 -5 -24 -14 -15 -15 -22 -6 -31 9 -9 9 -12 -1 -12 -7 0 -9 -4 -6 -10 3
-5 0 -10 -7 -10 -9 0 -9 -3 2 -10 8 -5 10 -10 5 -10 -6 0 -12 -10 -13 -22 -4
-38 -7 -52 -16 -67 -6 -10 -5 -12 2 -7 7 4 12 3 12 -3 0 -5 -4 -12 -10 -16 -5
-3 -6 -13 -3 -22 5 -12 3 -14 -8 -8 -12 8 -12 6 0 -8 10 -13 10 -17 1 -17 -7
0 -10 -7 -6 -17 4 -9 1 -20 -6 -25 -11 -6 -10 -8 0 -8 8 0 10 -5 5 -12 -11
-18 -10 -42 2 -50 6 -4 2 -8 -7 -8 -10 0 -18 -5 -18 -11 0 -5 5 -7 10 -4 6 3
10 2 10 -4 0 -5 -4 -12 -9 -16 -6 -3 -8 -15 -6 -26 3 -12 0 -30 -5 -39 -7 -13
-6 -20 3 -23 9 -3 9 -7 -1 -20 -7 -8 -12 -21 -11 -29 4 -32 -2 -59 -12 -53 -6
4 -5 -3 3 -14 11 -18 11 -23 -2 -31 -12 -8 -12 -10 -1 -10 10 0 11 -3 2 -14
-9 -10 -9 -16 -1 -21 8 -5 8 -10 0 -20 -6 -7 -11 -38 -11 -69 -1 -39 -5 -54
-13 -49 -6 3 -6 1 2 -8 15 -17 16 -43 0 -33 -7 5 -8 3 -3 -7 11 -17 12 -50 1
-67 -4 -7 -2 -12 6 -12 9 0 9 -3 -2 -10 -12 -8 -12 -10 -1 -10 11 0 11 -3 0
-17 -11 -13 -11 -17 -1 -20 6 -3 12 -9 12 -14 0 -6 -4 -8 -9 -5 -10 6 -6 -37
5 -55 4 -8 3 -9 -4 -5 -14 8 -12 -20 2 -43 6 -9 5 -12 -2 -7 -14 8 -11 -86 3
-96 6 -5 6 -8 -2 -8 -7 0 -11 -14 -10 -35 1 -19 6 -35 11 -35 5 0 4 -6 -2 -13
-7 -8 -7 -18 -2 -27 5 -8 5 -21 -1 -32 -7 -12 -6 -18 1 -18 8 0 8 -6 0 -20 -8
-14 -8 -20 0 -20 7 0 8 -6 0 -19 -7 -14 -7 -22 1 -27 8 -4 7 -9 -2 -15 -8 -5
-9 -9 -3 -9 6 0 11 -40 12 -110 0 -61 4 -115 7 -120 3 -6 2 -10 -4 -10 -7 0
-7 -8 -1 -25 5 -14 6 -25 1 -25 -11 0 -2 -40 13 -59 9 -12 8 -13 -3 -7 -11 7
-13 1 -9 -28 2 -21 0 -36 -7 -36 -5 0 -3 -6 6 -13 15 -11 15 -14 1 -27 -8 -7
-11 -15 -5 -17 5 -2 7 -18 5 -35 -4 -24 -2 -29 9 -23 11 6 12 5 2 -6 -7 -7
-13 -30 -13 -52 0 -25 -4 -36 -11 -31 -7 4 -6 -3 2 -17 14 -26 13 -27 -5 -49
-8 -8 -12 -23 -11 -32 2 -10 0 -18 -5 -18 -5 0 -7 -11 -5 -25 1 -14 -2 -25 -8
-25 -5 0 -5 -6 2 -14 9 -10 8 -16 -3 -25 -8 -7 -12 -20 -9 -28 5 -13 2 -15
-12 -9 -18 7 -18 6 0 -14 12 -13 14 -20 5 -20 -7 0 -10 -7 -6 -15 3 -8 0 -15
-5 -15 -7 0 -9 -11 -7 -25 3 -15 1 -22 -5 -18 -6 4 -8 0 -4 -10 3 -9 2 -19 -3
-22 -5 -3 -7 -12 -3 -20 3 -9 -1 -15 -8 -15 -11 0 -11 -3 1 -10 12 -7 12 -10
1 -10 -7 0 -11 -6 -7 -15 3 -9 0 -15 -10 -15 -14 0 -14 -2 0 -16 18 -17 21
-28 7 -20 -12 8 -25 -50 -15 -65 5 -8 2 -10 -8 -6 -13 4 -15 0 -11 -25 3 -18
1 -28 -5 -24 -5 3 -10 0 -9 -7 1 -43 -4 -77 -12 -73 -5 4 -8 -5 -6 -19 1 -14
-2 -25 -7 -25 -5 0 -6 -5 -3 -10 4 -6 1 -18 -7 -27 -11 -14 -11 -16 2 -8 13 8
13 6 2 -8 -8 -9 -11 -20 -8 -26 4 -5 -1 -17 -10 -25 -8 -9 -12 -16 -7 -16 5 0
9 -9 9 -19 0 -15 -4 -17 -13 -10 -9 8 -10 4 -3 -20 5 -20 5 -31 -1 -31 -6 0
-7 -4 -4 -10 3 -5 0 -10 -7 -10 -9 0 -9 -3 2 -10 12 -8 12 -10 1 -10 -8 0 -11
-7 -8 -20 3 -11 2 -20 -3 -20 -4 0 -6 -11 -5 -25 2 -14 -1 -25 -5 -25 -5 0 -7
-13 -5 -30 2 -16 -1 -33 -7 -36 -7 -5 -8 -2 -3 7 5 8 5 11 0 7 -13 -12 -14
-68 -1 -68 6 0 5 -4 -3 -9 -8 -5 -10 -14 -6 -21 6 -9 4 -11 -5 -5 -10 6 -12 4
-7 -7 3 -9 0 -21 -6 -28 -9 -10 -9 -11 3 -5 13 8 13 7 1 -8 -7 -9 -10 -17 -5
-17 5 0 0 -8 -11 -17 -17 -13 -17 -15 -2 -10 15 6 16 4 7 -13 -6 -11 -8 -20
-4 -20 4 0 -1 -9 -11 -20 -16 -17 -16 -20 -3 -15 12 5 16 2 13 -12 -1 -10 -7
-17 -11 -16 -5 1 -10 -10 -10 -23 -1 -15 2 -22 10 -17 6 3 6 1 -1 -8 -7 -7
-13 -21 -13 -31 0 -10 -7 -18 -16 -18 -8 0 -12 -4 -9 -10 3 -5 1 -10 -5 -10
-7 0 -25 -9 -41 -21 -16 -11 -36 -22 -44 -23 -8 -1 -18 -6 -22 -11 -4 -4 -2
-5 5 -1 6 4 12 3 12 -2 0 -6 -13 -15 -30 -21 -16 -5 -30 -15 -30 -20 0 -6 -3
-10 -7 -10 -21 3 -33 -2 -27 -13 5 -7 0 -9 -14 -6 -12 3 -21 3 -20 -1 2 -17
-3 -34 -9 -28 -3 4 -12 -1 -20 -11 -8 -9 -11 -11 -8 -3 5 9 -1 8 -19 -4 -14
-9 -23 -22 -19 -28 3 -5 1 -7 -5 -3 -6 3 -14 1 -17 -5 -4 -5 -13 -8 -20 -5 -7
2 -12 -3 -11 -12 0 -9 -5 -16 -12 -14 -7 1 -15 -5 -18 -13 -4 -8 -13 -15 -21
-15 -8 0 -12 -4 -9 -9 7 -11 -22 -23 -36 -14 -7 3 -8 1 -4 -5 4 -7 2 -12 -4
-12 -6 0 -8 -4 -5 -10 3 -5 -1 -10 -10 -10 -8 0 -23 -9 -32 -19 -9 -11 -20
-18 -25 -15 -4 3 -8 0 -8 -6 0 -6 -4 -8 -10 -5 -5 3 -10 -1 -10 -9 0 -9 -6
-16 -13 -16 -7 0 -23 -9 -35 -20 -12 -12 -22 -17 -22 -13 0 4 -13 -7 -29 -24
-22 -24 -31 -29 -40 -20 -9 9 -11 7 -5 -8 4 -11 4 -17 0 -13 -4 3 -16 -1 -26
-10 -41 -37 -55 -47 -63 -44 -5 1 -11 -7 -14 -18 -3 -11 -9 -18 -13 -15 -4 2
-15 -4 -25 -15 -10 -11 -25 -20 -34 -20 -14 0 -14 -2 -1 -10 13 -8 12 -10 -5
-11 -11 -1 -23 -1 -28 0 -4 0 -6 -5 -5 -11 2 -7 -1 -12 -7 -12 -5 1 -19 -7
-30 -19 -11 -11 -14 -16 -6 -12 10 5 12 4 7 -4 -4 -6 -11 -9 -15 -7 -4 3 -25
-10 -45 -29 -20 -18 -39 -34 -42 -34 -2 -1 -12 -1 -21 -1 -15 0 -16 -2 -3 -10
13 -8 12 -10 -3 -10 -10 0 -20 -7 -23 -15 -4 -8 -12 -15 -20 -15 -8 0 -14 -5
-14 -11 0 -6 -7 -9 -14 -6 -11 4 -13 1 -9 -10 4 -11 2 -14 -5 -9 -8 4 -12 0
-12 -11 0 -14 -2 -15 -9 -4 -7 11 -10 9 -16 -8 -4 -14 -12 -20 -21 -17 -13 5
-19 -6 -15 -28 1 -5 -6 -3 -16 4 -10 8 -15 11 -11 6 10 -11 -28 -50 -41 -41
-6 3 -11 -1 -11 -11 0 -10 -3 -14 -6 -11 -4 3 -15 -5 -26 -18 -11 -14 -28 -25
-39 -25 -10 0 -19 -4 -19 -10 0 -5 -11 -12 -25 -16 -14 -3 -23 -10 -20 -15 7
-11 -30 -30 -40 -21 -5 4 -5 2 -2 -4 3 -6 -7 -18 -24 -28 -16 -9 -29 -21 -29
-25 0 -5 -15 -7 -34 -4 -20 2 -40 -2 -48 -10 -7 -8 -19 -12 -26 -9 -6 2 -12
-1 -12 -6 0 -5 -12 -22 -27 -37 -16 -16 -21 -25 -13 -20 13 7 13 6 0 -8 -8 -9
-22 -17 -30 -19 -8 -2 -20 -10 -27 -19 -6 -9 -22 -15 -35 -13 -13 1 -27 3 -31
3 -5 1 -5 7 -1 13 6 10 5 10 -8 1 -8 -7 -17 -10 -21 -7 -10 11 -56 11 -54 1 1
-6 -4 -12 -10 -13 -7 -1 -18 -2 -24 -3 -5 0 -8 -5 -4 -10 3 -5 1 -12 -5 -16
-6 -4 -8 -11 -5 -16 4 -5 1 -9 -5 -9 -6 0 -8 -5 -4 -12 5 -8 0 -7 -11 2 -11 9
-16 10 -11 2 4 -6 3 -12 -3 -12 -5 0 -12 6 -14 13 -4 9 -6 9 -6 0 -1 -7 -7
-13 -15 -13 -8 0 -17 -6 -19 -12 -4 -10 -6 -9 -6 1 -1 11 -4 11 -18 0 -15 -12
-16 -12 -8 1 8 13 6 13 -8 1 -9 -7 -14 -18 -10 -24 3 -6 1 -7 -5 -3 -6 4 -9
13 -5 21 3 8 1 15 -5 15 -5 0 -13 -8 -16 -17 -6 -15 -8 -15 -16 -3 -8 13 -10
12 -10 -3 0 -17 -1 -17 -16 -2 -15 15 -18 15 -37 -2 -11 -10 -18 -13 -14 -7 3
6 0 11 -8 11 -8 0 -12 -4 -9 -9 8 -13 -10 -10 -25 5 -11 10 -13 10 -7 0 9 -16
-6 -17 -21 -2 -8 8 -13 7 -18 -2 -6 -8 -4 -10 5 -4 9 6 11 4 5 -5 -6 -10 -11
-9 -21 4 -9 13 -13 14 -16 4 -4 -10 -8 -10 -22 1 -14 12 -16 12 -11 -2 4 -8 1
-18 -6 -23 -7 -4 -10 -3 -5 4 3 6 2 13 -4 17 -5 3 -10 0 -10 -7 -1 -8 -7 -5
-17 7 -12 16 -14 16 -10 3 3 -10 2 -20 -4 -23 -5 -4 -9 -3 -8 2 3 19 -2 27
-10 14 -7 -11 -13 -9 -32 10 -17 17 -21 18 -16 5 5 -12 3 -16 -5 -13 -7 2 -12
10 -10 17 2 8 -3 10 -13 7 -8 -4 -15 -3 -15 2 0 5 -11 11 -25 13 -13 3 -22 1
-19 -3 3 -5 -2 -6 -10 -3 -9 3 -13 11 -9 18 4 6 -2 4 -12 -4 -12 -10 -16 -10
-11 -2 6 10 -2 12 -32 11 -32 -2 -45 2 -62 22 -12 13 -18 18 -14 10 5 -11 3
-13 -11 -7 -16 6 -16 4 -4 -11 12 -15 12 -16 -1 -8 -8 4 -21 13 -29 19 -17 13
-43 17 -35 5 3 -5 10 -7 15 -4 5 4 9 2 9 -3 0 -5 -14 -9 -30 -8 -21 1 -29 5
-25 15 4 11 3 12 -10 1 -10 -8 -15 -9 -15 -1 0 6 -4 11 -10 11 -5 0 -7 -8 -3
-17 4 -12 -1 -9 -15 7 -17 19 -21 21 -15 6 4 -14 3 -17 -6 -12 -6 4 -19 2 -27
-5 -12 -10 -13 -9 -9 3 4 9 0 15 -9 15 -8 0 -12 -6 -9 -15 5 -12 2 -12 -17 -2
-21 11 -22 10 -16 -6 6 -16 5 -16 -15 2 -12 10 -19 14 -16 8 4 -7 0 -15 -9
-18 -8 -3 -12 -2 -9 4 3 5 -1 7 -9 4 -8 -3 -12 -13 -9 -22 4 -14 3 -14 -5 -3
-12 17 -45 25 -35 8 4 -7 0 -8 -12 -3 -15 5 -16 4 -5 -9 16 -20 6 -19 -14 1
-9 8 -16 11 -16 5 0 -5 -17 -9 -39 -8 -24 2 -37 -2 -35 -8 3 -6 -5 -11 -16
-12 -11 -1 -18 2 -15 7 3 6 -1 7 -9 4 -9 -3 -13 -11 -9 -18 4 -6 -2 -4 -12 4
-17 14 -18 13 -12 -3 6 -15 4 -16 -16 -6 -21 12 -21 11 -7 -6 14 -17 13 -17
-5 -8 -22 11 -48 6 -39 -8 3 -5 0 -9 -5 -9 -6 0 -11 5 -11 10 0 16 -14 12 -38
-10 -12 -12 -22 -17 -22 -12 0 5 -7 9 -15 9 -12 0 -12 -3 -2 -16 8 -10 9 -13
0 -8 -6 4 -14 3 -18 -2 -9 -15 -45 -8 -46 9 0 10 -3 9 -9 -5 -5 -12 -9 -14 -9
-6 -1 15 -16 6 -16 -10 0 -5 -4 -9 -10 -9 -5 0 -10 4 -10 9 0 5 -4 13 -9 18
-6 5 -6 2 -1 -6 6 -11 4 -13 -9 -8 -9 4 -14 3 -11 -2 3 -5 1 -12 -5 -16 -5 -3
-10 2 -10 11 0 10 -3 14 -7 11 -3 -4 -13 -1 -22 5 -13 10 -12 8 1 -8 16 -19
16 -20 -2 -20 -10 0 -17 3 -15 6 4 6 -31 5 -45 0 -3 -1 -9 -2 -13 -1 -5 1 -6
-3 -2 -9 3 -5 1 -10 -5 -10 -6 0 -8 -5 -4 -12 4 -7 3 -8 -5 -4 -6 4 -9 11 -7
15 7 11 -27 10 -42 -2 -7 -6 -10 -17 -7 -25 3 -9 0 -12 -9 -9 -18 7 -30 -19
-41 -85 -3 -21 1 -29 18 -34 12 -5 25 -7 28 -6 3 0 4 -9 2 -22 -3 -14 2 -27
14 -36 15 -12 16 -12 6 0 -7 8 -13 19 -13 24 0 6 7 0 16 -12 8 -12 13 -26 10
-30 -2 -4 4 -8 14 -9 11 -1 29 -11 41 -22 12 -11 26 -18 31 -15 5 3 12 -3 14
-13 4 -15 12 -18 35 -15 16 2 29 0 29 -4 0 -5 10 -15 22 -23 21 -13 22 -13 9
2 -7 10 -10 17 -5 17 15 0 36 -17 34 -26 -2 -14 -29 -26 -41 -18 -8 4 -8 0 0
-15 10 -18 9 -20 -6 -14 -12 5 -15 2 -10 -9 7 -20 -16 -30 -34 -15 -11 10 -11
9 -1 -5 9 -11 10 -18 2 -23 -6 -4 -9 -14 -8 -23 2 -11 -3 -16 -15 -16 -11 1
-15 -2 -10 -10 8 -10 8 -19 4 -51 -1 -5 -6 -3 -12 5 -9 12 -10 11 -6 -7 4 -16
0 -23 -10 -23 -8 0 -11 -5 -8 -10 4 -6 12 -7 18 -3 7 4 6 0 -2 -10 -15 -19
-26 -23 -15 -5 4 6 3 8 -4 4 -6 -3 -9 -15 -7 -26 2 -11 -3 -23 -11 -28 -9 -5
-17 -20 -18 -35 -2 -15 0 -25 4 -22 4 2 7 -2 7 -9 0 -8 -8 -12 -21 -9 -19 4
-20 3 -3 -7 14 -9 16 -15 6 -26 -6 -8 -8 -14 -4 -14 4 0 1 -8 -6 -17 -10 -11
-10 -14 -2 -9 7 4 13 2 13 -3 0 -6 -7 -11 -15 -11 -8 0 -15 -5 -15 -11 0 -5 6
-7 13 -3 6 4 9 4 5 -1 -4 -4 -2 -15 5 -24 11 -14 10 -15 -7 -1 -18 14 -18 13
-11 -9 5 -16 4 -21 -4 -17 -6 4 -11 2 -11 -3 0 -6 4 -11 8 -11 4 0 9 -11 10
-26 1 -14 -2 -23 -8 -19 -6 3 -10 1 -10 -4 0 -6 5 -11 12 -11 9 0 9 -3 0 -12
-15 -15 -15 -28 -1 -28 5 0 8 4 5 8 -3 5 2 9 11 9 12 0 11 -5 -7 -19 -12 -10
-18 -18 -12 -18 10 0 7 -44 -4 -62 -3 -4 0 -8 5 -8 6 0 11 -5 11 -11 0 -5 -4
-8 -8 -5 -4 2 -9 -4 -9 -15 -2 -16 1 -18 12 -9 10 8 15 8 21 -1 4 -7 3 -9 -4
-5 -17 10 -20 -18 -3 -32 14 -12 14 -13 -2 -8 -14 5 -16 2 -8 -13 6 -10 7 -21
4 -25 -3 -3 -1 -6 6 -6 7 0 9 -5 6 -10 -4 -6 -12 -7 -18 -3 -7 3 -4 -3 7 -15
10 -12 23 -19 29 -15 6 3 7 1 3 -6 -4 -6 -11 -9 -15 -7 -4 3 -8 -1 -8 -9 0 -8
3 -12 7 -10 3 2 12 0 20 -6 11 -6 12 -9 2 -9 -7 0 -11 -4 -7 -10 3 -5 13 -7
23 -4 10 4 13 3 6 -3 -6 -4 -15 -19 -19 -32 -5 -17 -9 -20 -15 -10 -7 10 -11
10 -23 0 -12 -9 -17 -9 -23 0 -5 8 -3 9 6 4 8 -5 11 -4 6 3 -7 12 -31 6 -55
-12 -11 -8 -13 -8 -8 1 5 8 0 11 -13 10 -11 -1 -20 -4 -20 -8 0 -3 -11 -5 -25
-4 -14 2 -23 0 -20 -5 3 -4 -2 -10 -9 -13 -8 -3 -17 -1 -20 6 -2 7 -5 1 -5
-13 -1 -14 -5 -20 -9 -15 -9 13 -27 13 -39 1 -4 -5 -3 -6 4 -2 8 4 11 -1 10
-13 -1 -16 -4 -18 -16 -8 -12 9 -13 9 -7 0 4 -8 2 -13 -4 -13 -6 0 -8 -4 -5
-10 3 -6 -1 -7 -9 -4 -9 3 -16 1 -16 -6 0 -7 -6 -6 -16 4 -20 20 -30 21 -14 1
10 -13 9 -15 -11 -16 -13 -1 -28 -1 -33 0 -5 1 -3 -6 5 -15 13 -16 12 -16 -9
-5 -15 8 -22 8 -22 1 0 -6 -3 -9 -7 -7 -11 6 -43 -30 -35 -39 4 -3 -3 -1 -15
5 -20 10 -22 9 -16 -5 5 -13 3 -15 -7 -9 -10 6 -12 4 -7 -9 4 -9 3 -15 -2 -11
-15 9 -40 -6 -34 -21 3 -8 0 -14 -6 -14 -18 0 -13 -25 11 -56 15 -19 16 -24 5
-15 -15 12 -17 12 -11 -3 3 -9 15 -16 25 -16 11 0 22 -7 26 -16 5 -13 7 -13
14 -2 7 10 9 8 9 -6 0 -16 2 -16 16 -5 13 10 17 10 25 -2 8 -12 10 -12 19 1 9
13 11 13 20 0 8 -13 11 -13 22 -1 11 12 10 12 -2 6 -13 -8 -13 -7 -1 8 14 18
26 24 17 8 -3 -5 3 -11 14 -14 11 -3 23 0 27 5 3 7 1 8 -5 4 -7 -4 -12 -3 -12
2 0 18 40 20 57 4 16 -16 16 -16 10 0 -3 10 -2 20 3 23 6 4 10 1 10 -6 0 -10
3 -10 12 -1 16 16 31 15 23 0 -4 -7 0 -5 8 4 8 10 17 15 20 11 4 -3 13 0 22 7
12 10 15 9 16 -6 1 -14 3 -13 8 5 6 23 7 23 24 7 9 -10 17 -12 17 -6 0 6 5 8
12 4 7 -4 8 -3 4 5 -4 6 -12 8 -18 5 -6 -4 -8 -3 -5 3 3 5 28 9 56 9 37 -1 47
2 39 11 -7 9 -4 11 12 8 12 -2 23 2 27 10 4 12 9 10 25 -8 19 -22 19 -22 9 0
-9 18 -8 21 7 18 9 -2 17 -4 17 -5 0 -1 8 -3 18 -5 9 -2 15 1 12 5 -3 5 -1 11
5 15 5 3 10 -2 11 -12 1 -13 3 -11 9 7 4 14 8 19 9 13 1 -7 8 -13 17 -13 8 0
12 4 9 10 -3 6 1 7 9 4 9 -3 14 -10 11 -14 -7 -11 28 -7 36 4 8 10 68 16 73 7
3 -4 19 -8 36 -9 23 -2 30 1 24 10 -6 10 -4 11 7 0 19 -17 32 -15 25 5 -6 17
-5 17 7 1 10 -12 17 -14 24 -7 8 8 13 7 18 -2 6 -8 4 -10 -5 -4 -9 6 -11 4 -5
-5 6 -10 11 -9 21 4 16 23 18 23 38 6 21 -16 49 -23 40 -9 -3 5 -11 6 -17 3
-7 -4 -8 -3 -4 1 10 11 37 15 37 6 0 -4 11 -7 24 -7 14 0 23 2 21 6 -1 3 4 12
13 20 14 13 15 12 9 -3 -3 -9 -2 -19 2 -22 5 -2 11 5 15 17 5 23 6 23 21 3 9
-11 14 -15 11 -8 -4 6 -2 14 4 18 5 3 10 0 10 -7 0 -10 3 -9 9 2 6 8 7 18 4
23 -3 5 7 1 23 -9 15 -11 25 -13 21 -6 -5 7 -3 12 3 12 6 0 8 4 5 10 -4 6 1 7
11 3 13 -5 15 -3 9 8 -8 12 -6 12 8 1 14 -12 16 -11 12 7 -2 11 -1 20 3 19 13
-4 52 13 52 22 0 5 7 7 15 4 12 -5 13 -10 4 -20 -6 -8 -8 -14 -3 -14 4 0 0 -6
-11 -13 -10 -8 -15 -19 -11 -25 5 -8 1 -10 -10 -5 -14 5 -16 2 -11 -16 5 -22
5 -22 -19 -6 l-25 16 18 -28 c16 -26 16 -27 0 -14 -15 12 -17 12 -11 -4 6 -13
4 -16 -6 -10 -10 6 -10 4 -2 -11 8 -14 6 -21 -6 -32 -15 -12 -15 -12 4 -7 14
3 21 1 21 -9 0 -9 -4 -13 -9 -10 -4 3 -8 0 -8 -5 0 -6 9 -11 20 -11 11 0 20
-4 20 -10 0 -5 7 -10 15 -10 8 0 15 6 15 13 0 9 3 8 9 -2 5 -7 13 -11 18 -8 5
3 8 -17 7 -43 0 -27 3 -47 6 -45 4 2 7 -8 8 -23 2 -93 4 -112 14 -112 7 0 6
-5 -1 -14 -8 -10 -9 -16 -2 -21 6 -3 11 -16 11 -28 0 -44 3 -62 12 -74 6 -7 8
-20 4 -28 -3 -8 -1 -15 4 -15 6 0 10 -5 10 -11 0 -5 -4 -7 -10 -4 -6 3 -7 -1
-4 -9 3 -9 9 -14 13 -12 3 2 7 -9 8 -25 2 -21 -2 -28 -10 -24 -7 4 -4 0 5 -8
10 -8 15 -17 11 -20 -3 -4 -1 -7 5 -7 7 0 12 -5 12 -11 0 -5 -5 -7 -11 -4 -12
8 11 -37 25 -46 5 -4 6 -16 3 -28 -3 -12 0 -24 5 -28 7 -4 8 -1 3 7 -6 9 -4
11 4 6 7 -5 10 -14 7 -22 -3 -8 -1 -14 4 -14 6 0 10 -9 10 -21 0 -11 4 -17 10
-14 5 3 10 -1 10 -10 0 -10 -5 -14 -12 -10 -7 4 -6 1 2 -7 8 -7 22 -22 30 -32
13 -18 13 -19 0 -11 -8 4 -5 -2 8 -14 24 -24 30 -39 9 -25 -7 5 -5 2 5 -7 9
-9 14 -19 11 -23 -4 -3 -1 -6 5 -6 7 0 12 -9 12 -21 0 -11 5 -17 10 -14 6 3
10 -3 10 -14 0 -12 5 -21 11 -21 6 0 9 -7 5 -15 -3 -9 0 -15 9 -15 14 0 20
-12 16 -33 -1 -5 3 -6 9 -2 5 3 10 -1 10 -9 0 -8 4 -18 10 -21 6 -3 8 2 5 12
-3 10 3 1 13 -20 10 -20 22 -34 25 -30 4 3 7 -1 7 -11 0 -9 6 -19 14 -22 8 -3
12 -12 9 -20 -3 -9 0 -14 8 -12 9 2 13 -4 11 -15 -2 -9 1 -17 5 -16 19 3 34
-2 29 -9 -7 -12 35 -48 65 -57 28 -9 61 -40 52 -49 -4 -3 2 -6 13 -6 16 0 17
-2 4 -10 -13 -9 -13 -10 0 -11 8 -1 19 -1 23 0 5 1 6 -3 2 -9 -3 -5 -1 -10 5
-10 6 0 8 -4 5 -10 -3 -5 1 -10 9 -10 9 0 23 -11 32 -25 9 -14 21 -22 27 -18
5 3 7 1 4 -4 -9 -14 38 -67 52 -59 6 4 11 4 10 -1 -4 -21 2 -33 17 -33 8 0 12
-4 9 -10 -3 -5 1 -10 10 -10 9 0 13 -4 10 -10 -3 -5 1 -10 10 -10 9 0 13 -5
10 -10 -6 -9 8 -14 28 -11 5 1 7 -2 5 -6 -5 -10 39 -53 46 -45 3 3 6 -2 6 -12
0 -9 11 -21 25 -28 13 -6 22 -14 20 -18 -7 -11 25 -21 38 -13 7 4 6 -1 -2 -10
-12 -15 -12 -17 1 -12 10 4 25 -6 41 -24 14 -17 30 -31 36 -31 5 0 16 -9 24
-20 8 -11 17 -17 20 -13 4 3 7 -1 7 -11 0 -9 5 -14 10 -11 6 3 10 -1 10 -9 0
-9 5 -16 11 -16 5 0 7 6 3 13 -4 7 -3 9 2 4 5 -5 9 -14 9 -20 0 -7 7 -12 15
-12 8 -1 14 -7 12 -14 -2 -8 3 -11 13 -8 9 4 15 1 15 -9 0 -8 5 -12 10 -9 5 3
10 -2 10 -12 0 -15 2 -16 10 -3 8 13 10 12 10 -4 0 -11 2 -17 5 -14 3 3 20 -8
37 -24 17 -16 37 -27 45 -24 7 3 13 -1 13 -9 0 -8 6 -15 13 -15 7 0 23 -9 35
-20 12 -11 26 -20 32 -20 6 0 8 -6 4 -13 -5 -8 -2 -8 9 2 15 12 17 11 17 -2 0
-9 5 -19 12 -23 7 -5 9 -2 4 7 -4 8 0 5 8 -5 9 -11 19 -17 22 -13 4 4 13 -1
21 -11 8 -9 11 -11 7 -3 -5 9 -3 12 4 7 7 -4 12 -14 12 -21 0 -8 6 -12 13 -9
7 2 23 -5 35 -16 13 -12 22 -16 22 -8 0 6 6 4 13 -7 9 -11 19 -15 27 -10 9 5
11 4 6 -3 -4 -7 -1 -12 9 -12 9 0 13 -4 10 -10 -3 -6 1 -7 9 -4 9 3 16 1 16
-6 0 -6 4 -8 10 -5 6 3 10 1 10 -5 0 -6 4 -9 9 -5 5 3 17 -2 25 -11 9 -9 23
-13 32 -10 8 3 13 2 10 -3 -3 -5 8 -14 25 -20 17 -6 28 -15 24 -21 -3 -5 0 -7
8 -5 16 7 87 -22 87 -35 0 -5 9 -7 20 -5 14 3 20 -2 20 -13 0 -14 2 -15 10 -2
8 12 10 12 15 -2 4 -9 13 -14 21 -11 8 3 14 0 14 -7 0 -6 5 -8 11 -5 5 4 20
-1 31 -12 15 -12 19 -13 14 -3 -4 8 0 6 8 -4 9 -11 16 -16 16 -11 0 5 5 4 11
-2 6 -6 18 -9 27 -6 10 4 13 2 8 -5 -5 -8 1 -12 19 -12 14 0 28 -7 31 -15 5
-12 10 -13 20 -4 11 9 15 8 20 -5 3 -9 10 -14 14 -11 5 3 11 1 15 -5 4 -6 11
-8 16 -5 5 4 9 1 9 -4 0 -6 7 -11 15 -11 8 0 15 -5 15 -11 0 -5 4 -7 10 -4 6
3 10 2 10 -3 0 -6 10 -8 23 -6 12 2 16 1 9 -2 -9 -4 -5 -10 13 -20 15 -8 32
-14 39 -14 6 0 23 -11 38 -25 18 -16 28 -20 31 -12 3 7 6 5 6 -5 1 -11 8 -16
21 -13 13 3 20 -2 20 -12 0 -9 3 -13 7 -10 3 4 15 -1 26 -10 12 -11 17 -12 12
-4 -6 10 -4 12 4 7 7 -5 10 -14 7 -22 -4 -11 -1 -12 13 -4 15 7 20 6 25 -6 4
-9 13 -14 21 -10 9 3 18 -1 21 -9 4 -8 10 -12 15 -9 5 3 9 -3 9 -13 0 -15 2
-16 10 -3 8 12 10 12 10 1 0 -8 7 -11 20 -8 10 3 18 2 17 -2 -1 -3 1 -6 4 -6
3 0 13 -8 23 -18 10 -9 22 -15 27 -12 4 3 20 -1 33 -10 14 -9 31 -13 37 -9 8
4 9 3 5 -4 -5 -8 3 -12 24 -12 21 0 29 -4 24 -12 -5 -7 -2 -9 8 -5 9 3 21 0
27 -6 6 -6 27 -12 48 -14 20 -1 39 -6 42 -11 3 -4 14 -8 24 -9 43 -2 48 -4 41
-15 -4 -7 -3 -8 5 -4 6 4 19 2 28 -6 9 -7 14 -8 10 -2 -4 7 0 14 8 18 8 3 14
2 12 -2 -1 -4 2 -8 7 -9 5 -1 13 -7 17 -15 7 -11 9 -11 9 1 0 11 3 11 17 0 14
-12 15 -12 9 0 -7 10 -4 10 15 -1 13 -8 31 -14 39 -13 8 0 17 -2 20 -6 3 -4
19 -9 35 -12 17 -3 42 -10 58 -16 15 -6 27 -8 27 -5 0 4 11 -1 25 -10 22 -15
24 -15 18 0 -5 15 -3 15 20 -1 14 -9 31 -14 37 -10 5 3 10 3 10 -2 0 -4 11
-13 25 -20 14 -6 23 -7 19 -2 -6 11 10 12 20 1 7 -7 11 -8 37 -11 5 0 7 -7 3
-13 -5 -9 -2 -9 9 1 9 7 17 9 17 4 0 -5 14 -10 31 -11 17 -1 40 -7 50 -12 10
-6 24 -9 31 -8 6 2 14 -6 16 -17 4 -18 3 -18 -14 -5 -11 9 -15 10 -10 3 4 -8
1 -13 -9 -13 -10 0 -14 5 -10 13 4 6 -1 3 -9 -7 -12 -15 -16 -16 -16 -5 0 8
-3 10 -8 4 -4 -5 -23 -10 -42 -10 -19 0 -40 -3 -47 -8 -6 -4 -14 -3 -18 3 -3
5 -12 10 -18 10 -7 0 -6 -4 3 -11 12 -9 11 -10 -6 -6 -12 2 -28 0 -37 -4 -10
-6 -18 -5 -22 1 -4 7 -12 7 -25 0 -13 -7 -21 -7 -25 0 -4 7 -11 7 -18 2 -7 -5
-22 -8 -34 -7 -13 1 -23 -1 -23 -4 0 -3 -16 -6 -35 -7 -18 0 -31 4 -28 9 3 5
-2 5 -13 -1 -11 -5 -45 -9 -77 -8 -47 1 -56 -2 -52 -14 3 -9 -1 -7 -10 4 -10
13 -15 15 -15 6 0 -7 -3 -10 -6 -7 -4 3 -16 2 -27 -4 -14 -8 -18 -8 -13 0 4 6
2 11 -3 11 -6 0 -11 -5 -11 -11 0 -8 -5 -8 -15 1 -8 7 -15 8 -15 2 0 -5 -14
-8 -30 -7 -17 1 -33 -1 -36 -6 -3 -5 -12 -5 -22 0 -18 9 -45 4 -38 -7 2 -4
-19 -7 -47 -8 -29 0 -61 -4 -72 -8 -16 -6 -17 -6 -5 3 8 6 11 11 5 11 -5 -1
-18 -7 -28 -14 -10 -8 -27 -11 -38 -9 -12 4 -25 0 -30 -8 -7 -12 -9 -12 -9 0
0 9 -4 10 -12 4 -7 -6 -25 -10 -40 -9 -14 1 -25 -1 -22 -5 2 -4 -3 -9 -11 -13
-8 -3 -15 0 -15 7 0 7 -3 8 -8 2 -10 -15 -73 -35 -85 -28 -6 3 -7 1 -4 -4 8
-13 -20 -26 -35 -16 -7 3 -8 1 -4 -5 4 -7 2 -12 -4 -12 -6 0 -8 -4 -5 -10 6
-9 -8 -14 -27 -11 -5 0 -8 -6 -8 -14 0 -8 -4 -15 -10 -15 -5 0 -10 -7 -10 -16
0 -8 -4 -12 -10 -9 -5 3 -10 1 -10 -5 0 -6 -5 -8 -12 -4 -9 5 -9 3 1 -9 11
-14 11 -18 -3 -23 -9 -3 -13 -11 -9 -17 4 -6 0 -8 -10 -4 -11 4 -15 1 -12 -14
2 -10 -1 -19 -7 -19 -6 0 -8 -3 -5 -7 4 -3 1 -13 -6 -21 -10 -13 -9 -14 3 -7
12 7 13 6 4 -6 -15 -19 -24 -58 -14 -64 4 -2 5 -16 2 -30 -3 -17 0 -25 9 -25
11 0 11 -2 -1 -10 -11 -7 -11 -10 -2 -10 7 0 11 -4 8 -9 -3 -4 1 -17 9 -27 8
-10 15 -27 15 -37 0 -10 7 -20 16 -24 8 -3 13 -12 10 -20 -3 -7 1 -16 9 -19 8
-4 12 -10 9 -15 -3 -5 0 -9 6 -9 6 0 9 -4 6 -8 -3 -5 4 -14 14 -22 10 -8 17
-17 14 -22 -3 -4 0 -8 6 -8 6 0 8 -4 5 -10 -3 -5 -1 -10 5 -10 6 0 8 -5 5 -10
-3 -6 1 -10 10 -10 9 0 13 -4 10 -10 -3 -5 -1 -10 4 -10 6 0 11 -6 11 -13 0
-7 9 -18 20 -25 11 -7 20 -19 20 -28 0 -8 5 -12 10 -9 6 3 10 -4 10 -15 0 -13
8 -24 20 -27 11 -3 17 -9 14 -14 -3 -5 2 -9 10 -9 9 0 16 -4 16 -10 0 -22 2
-25 23 -37 12 -7 18 -12 13 -13 -5 0 10 -18 32 -41 23 -22 40 -45 36 -50 -3
-5 2 -9 11 -9 18 0 67 -45 58 -54 -4 -3 1 -6 11 -6 9 0 14 -4 11 -10 -3 -5 -1
-10 6 -10 6 0 22 -12 35 -26 14 -15 29 -22 37 -18 6 4 9 4 5 -1 -7 -8 15 -35
29 -35 5 0 15 -9 23 -20 8 -11 20 -20 26 -20 7 0 23 -12 35 -27 14 -18 20 -21
15 -9 -4 13 3 9 25 -12 18 -17 37 -29 42 -25 6 4 7 1 3 -6 -5 -8 0 -14 13 -18
12 -3 21 -9 21 -14 0 -5 7 -9 15 -9 8 0 15 -4 15 -10 0 -5 9 -10 20 -10 11 0
20 -5 20 -11 0 -5 -5 -7 -12 -3 -7 4 -8 3 -4 -5 4 -6 11 -9 15 -7 4 3 20 -7
37 -21 16 -14 39 -32 51 -40 13 -8 20 -19 17 -25 -3 -5 2 -8 12 -6 13 2 18 -2
16 -12 -2 -8 0 -12 4 -8 4 4 13 3 21 -3 7 -6 13 -8 13 -4 0 5 9 -2 20 -15 11
-13 20 -20 20 -15 0 4 11 0 23 -8 13 -8 32 -17 43 -19 10 -2 25 -8 32 -15 7
-7 20 -9 29 -6 10 4 14 2 10 -4 -4 -6 -1 -11 6 -10 51 2 78 -4 71 -16 -6 -9
-5 -9 7 0 12 10 18 10 29 0 10 -10 11 -9 5 3 -7 12 -6 13 6 3 12 -10 18 -10
27 -1 8 8 12 9 12 1 0 -6 8 -10 18 -8 9 2 17 4 17 5 0 1 29 8 63 13 9 1 22 6
29 10 6 4 18 4 27 1 9 -3 16 -1 16 6 0 6 5 8 10 5 6 -4 16 -2 23 3 7 5 26 8
43 7 24 -1 31 2 27 12 -4 11 1 12 21 7 17 -4 26 -2 26 6 0 6 4 9 9 5 5 -3 13
0 16 6 4 5 13 8 21 5 8 -3 14 -2 14 2 0 4 9 8 20 9 11 1 34 9 50 17 20 9 28
10 23 3 -3 -7 3 -4 14 6 11 9 23 14 26 10 4 -3 17 2 29 13 12 10 18 13 14 7
-4 -7 -2 -13 3 -13 6 0 11 4 11 10 0 9 66 26 83 22 5 -1 6 2 2 8 -5 9 22 15
48 11 4 0 7 7 7 17 0 13 2 14 9 4 6 -10 10 -10 21 3 10 12 16 13 29 3 9 -7 13
-8 9 -4 -9 11 40 38 53 30 5 -3 9 0 9 7 0 7 3 9 7 6 3 -4 12 -2 20 4 7 6 13 8
13 5 0 -4 7 0 16 9 12 12 19 13 30 4 11 -9 14 -8 14 7 0 16 2 17 10 4 8 -13
10 -13 10 2 0 11 5 15 15 12 8 -4 22 -1 30 6 8 6 20 8 26 4 8 -4 9 -3 5 4 -4
7 -1 12 6 13 32 2 53 9 56 19 2 5 8 7 13 4 6 -3 16 0 24 6 8 7 15 9 15 5 0 -4
6 -2 14 4 7 6 22 8 32 4 16 -6 17 -4 6 9 -10 13 -8 15 15 12 15 -1 39 6 55 18
16 11 32 18 35 14 3 -3 15 0 27 7 11 6 26 12 31 12 6 1 20 6 33 13 12 7 22 10
22 6 0 -3 7 -1 15 6 8 6 19 9 25 5 5 -3 10 -1 10 5 0 7 6 10 14 7 8 -3 17 0
19 7 3 8 17 11 37 8 21 -3 31 -1 27 5 -4 7 9 10 33 9 23 -1 36 2 33 8 -4 5 1
7 10 3 10 -3 17 -3 17 2 0 4 10 7 23 6 12 -1 29 1 38 6 9 5 19 5 23 2 10 -11
36 -12 36 -2 0 4 7 6 15 3 9 -4 15 0 15 7 0 11 3 11 10 -1 5 -8 10 -10 10 -5
0 6 42 10 108 9 59 0 115 3 124 8 10 5 19 4 23 -2 5 -8 11 -7 20 0 8 7 36 12
62 13 26 0 51 5 55 11 5 7 8 7 8 -2 0 -8 5 -10 13 -5 14 9 34 13 65 15 12 0
22 5 22 10 0 6 7 8 15 4 8 -3 15 0 15 7 0 9 3 8 9 -1 7 -11 9 -10 15 3 3 9 10
14 15 10 5 -3 12 -1 16 5 4 6 11 8 16 5 5 -4 9 -1 9 4 0 6 6 10 13 8 6 -1 11
4 9 11 -1 8 2 10 8 7 6 -4 20 1 32 12 11 10 22 17 24 16 11 -7 24 -2 19 7 -3
6 0 10 9 10 8 0 28 14 45 31 17 17 31 27 31 23 0 -4 7 1 16 12 11 13 17 15 20
7 3 -7 14 -13 24 -13 9 0 23 -7 30 -15 7 -8 19 -15 27 -15 7 0 16 -7 19 -15 5
-11 10 -12 26 -4 15 8 19 8 14 0 -4 -6 0 -11 8 -11 9 0 16 -5 16 -11 0 -5 5
-7 10 -4 5 3 10 2 10 -4 0 -6 6 -8 14 -5 8 3 17 0 22 -7 5 -8 3 -10 -6 -4 -9
5 -11 4 -6 -4 4 -6 12 -9 17 -5 6 3 26 -2 45 -11 20 -9 38 -14 41 -11 3 3 12
-1 19 -9 8 -7 23 -11 35 -8 15 4 20 3 15 -5 -5 -8 4 -12 28 -12 20 0 36 -4 36
-9 0 -4 10 -8 23 -8 39 -1 48 -3 43 -11 -2 -4 4 -9 15 -9 12 -1 17 3 13 10 -5
8 -3 8 7 -1 7 -6 26 -12 41 -12 15 0 28 -5 28 -12 0 -6 3 -9 6 -5 4 3 22 0 40
-8 19 -8 34 -11 34 -7 0 3 7 -4 16 -16 10 -15 22 -21 32 -17 9 3 13 3 9 -1 -7
-8 33 -40 46 -36 4 1 7 -3 7 -8 0 -6 7 -10 16 -10 8 0 12 -4 9 -10 -5 -9 23
-15 48 -11 4 0 7 -4 7 -9 0 -6 12 -10 26 -10 14 0 23 -4 20 -8 -2 -4 11 -9 31
-10 20 -2 41 -6 47 -10 11 -6 70 -13 113 -13 12 1 25 -4 28 -10 5 -7 11 -6 21
2 8 6 14 7 14 2 0 -6 10 -9 23 -9 12 1 30 -2 40 -6 11 -6 17 -5 17 4 0 8 5 6
11 -4 7 -14 15 -15 34 -8 14 5 25 6 25 1 0 -4 15 -7 33 -6 17 2 40 -2 50 -7
12 -6 17 -5 17 4 0 6 6 4 13 -7 10 -13 16 -15 21 -6 4 6 12 8 18 5 6 -4 29 -9
52 -12 23 -2 46 -8 51 -13 6 -4 17 -4 24 0 8 5 28 3 47 -5 19 -8 34 -12 34 -9
0 3 10 1 21 -6 17 -9 20 -8 14 2 -6 8 -4 10 6 3 18 -11 37 -15 74 -17 17 -1
32 -4 35 -8 3 -4 21 -8 40 -10 19 -2 40 -7 46 -11 6 -4 23 -9 38 -10 14 -1 26
-6 26 -11 0 -5 6 -4 14 2 9 7 15 8 18 2 1 -5 14 -11 28 -13 14 -2 31 -7 39
-12 11 -7 12 -6 6 5 -8 12 -6 12 8 1 9 -8 22 -12 29 -10 7 3 19 -2 26 -11 8
-9 11 -10 7 -3 -3 6 -1 12 4 12 6 0 11 -4 11 -8 0 -4 17 -9 37 -10 20 -2 42
-7 48 -12 6 -5 21 -8 33 -5 12 2 22 -1 22 -6 0 -6 4 -8 9 -4 5 3 12 2 15 -3 3
-5 21 -7 40 -6 20 2 36 -1 36 -5 0 -5 10 -7 22 -3 12 3 19 1 15 -4 -3 -5 3
-10 13 -10 10 0 16 4 13 9 -3 5 4 4 16 -2 12 -7 27 -9 33 -5 8 5 9 2 5 -9 -5
-14 -3 -15 14 -4 16 10 21 9 28 -2 7 -10 13 -11 30 -2 11 7 21 8 21 4 0 -8 23
-11 103 -15 20 -1 37 -6 37 -11 0 -5 6 -4 14 2 10 8 16 9 21 1 3 -6 10 -8 15
-5 5 3 19 1 33 -4 16 -6 28 -6 36 2 7 7 11 7 11 1 0 -6 24 -10 55 -10 30 1 55
-3 55 -8 0 -5 7 -3 15 4 8 7 15 8 15 2 0 -5 15 -10 33 -10 17 -1 95 -3 172 -4
77 -2 146 -7 154 -12 9 -6 12 -5 7 2 -4 7 9 10 39 8 25 -1 50 1 56 5 7 4 25 3
41 -1 15 -5 26 -5 23 0 -7 11 12 16 63 15 23 0 42 3 42 7 0 4 7 4 17 1 9 -4
14 -2 10 3 -3 6 7 9 24 8 16 -1 29 2 29 6 0 5 9 7 20 5 11 -2 20 0 20 5 0 5 7
7 15 4 8 -4 15 -1 15 5 0 6 5 11 11 11 5 0 7 -6 3 -12 -6 -10 -4 -10 7 -1 17
17 32 17 24 1 -4 -7 1 -4 9 6 9 12 16 14 16 7 0 -8 12 -4 32 10 18 14 28 17
24 8 -5 -9 -3 -9 6 2 7 9 21 15 31 13 9 -1 15 2 11 7 -3 5 0 10 5 10 6 1 17 2
24 3 6 1 11 7 10 14 -2 7 0 12 5 11 19 -3 52 15 52 28 0 8 5 11 10 8 6 -3 10
-1 10 5 0 7 10 21 23 32 12 11 15 16 7 12 -13 -7 -13 -5 -1 9 7 9 16 15 20 13
8 -5 31 20 25 27 -3 3 4 8 15 12 12 3 21 13 21 21 0 8 7 17 15 20 8 4 12 10 9
15 -3 5 0 9 5 9 6 0 11 7 11 16 0 8 5 12 10 9 6 -4 10 7 10 24 0 17 4 31 9 31
12 0 31 56 23 65 -4 3 1 3 11 -1 14 -5 16 -2 14 17 -2 13 2 29 9 37 7 7 11 19
8 27 -4 8 -1 15 7 15 7 0 9 3 6 7 -4 3 -2 12 4 20 8 9 8 13 1 13 -6 0 -9 7 -6
15 4 8 9 13 13 10 4 -2 8 2 8 9 0 9 -7 12 -16 9 -11 -4 -10 -1 3 9 10 8 16 20
12 26 -4 7 -2 12 4 12 6 0 8 5 5 10 -3 6 -1 10 6 10 10 0 10 3 1 12 -9 9 -8
16 6 32 12 14 13 17 2 11 -11 -6 -10 -3 3 12 9 11 14 22 11 25 -3 4 0 16 6 28
10 18 10 21 -2 14 -10 -6 -11 -5 -2 7 12 16 12 29 1 46 -6 9 -3 11 7 7 21 -8
21 12 0 24 -15 8 -15 10 0 15 12 5 14 12 8 24 -4 10 -7 33 -6 51 2 22 -1 30
-9 25 -7 -4 -5 2 3 12 9 11 10 16 3 11 -7 -4 -13 -2 -13 3 0 6 6 11 13 11 9 0
9 2 1 8 -8 4 -12 43 -13 102 -2 118 -3 130 -11 130 -4 0 -7 7 -8 15 -1 8 -3
22 -4 30 -1 8 -8 15 -15 15 -8 0 -12 4 -9 9 4 5 2 11 -4 13 -5 1 -11 15 -12
31 -1 15 -6 27 -10 27 -7 0 -3 34 7 49 3 5 -4 12 -15 16 -11 4 -18 11 -14 16
3 6 0 18 -8 27 -26 34 -38 61 -28 67 6 3 10 0 10 -7 1 -20 47 -49 78 -50 59
-1 83 2 77 11 -3 6 6 8 20 5 14 -2 25 0 25 5 0 5 11 8 25 7 13 -2 23 2 22 7
-1 6 7 11 18 12 12 0 19 6 17 14 -3 12 0 12 12 1 11 -8 16 -9 16 -1 0 6 9 11
21 11 11 0 18 4 14 9 -3 6 4 8 15 6 11 -2 20 0 20 6 0 5 9 9 21 9 11 0 18 4
14 9 -3 6 4 8 15 6 14 -3 20 1 20 13 0 15 2 15 10 2 6 -10 10 -11 10 -2 0 6 7
12 16 12 8 0 12 5 9 10 -3 6 3 10 14 10 11 0 23 5 26 11 4 6 13 8 21 5 8 -3
14 -1 14 4 0 5 11 12 25 16 14 3 25 10 25 15 0 5 7 9 15 9 8 0 15 6 15 13 0 8
4 7 10 -3 8 -13 10 -13 10 2 0 11 5 15 14 12 7 -3 20 2 29 10 9 9 25 16 36 16
11 0 23 5 27 12 5 7 3 8 -6 3 -9 -5 -11 -4 -6 3 5 9 13 9 28 1 11 -6 18 -7 15
-2 -3 5 3 15 15 22 16 10 19 10 12 -1 -6 -10 -5 -11 8 -1 8 7 18 10 22 6 4 -4
4 -1 1 8 -4 10 1 15 15 16 11 1 34 11 50 23 17 12 30 18 30 14 0 -4 7 1 16 12
8 10 13 12 9 4 -4 -10 -2 -9 8 2 8 10 19 18 25 18 5 0 13 7 16 16 4 10 14 14
26 11 11 -3 18 -1 15 3 -7 11 35 41 47 34 4 -3 8 3 8 13 0 15 2 16 10 3 8 -13
10 -12 10 3 0 10 5 15 10 12 6 -3 10 -3 10 2 0 15 49 32 54 19 2 -6 5 -3 5 7
1 10 6 15 11 12 6 -3 22 3 38 13 27 20 32 22 53 22 5 0 8 4 5 9 -4 5 3 7 14 4
12 -3 20 0 20 7 0 7 7 10 15 6 9 -3 15 0 15 10 0 8 5 12 10 9 6 -3 10 -1 10 5
0 6 5 8 10 5 6 -3 10 -1 10 4 0 6 4 10 9 8 5 -1 17 7 26 18 9 11 13 14 10 6
-5 -9 0 -8 18 4 15 9 32 13 38 9 8 -4 9 -3 5 4 -4 7 -2 12 4 12 6 0 8 5 5 10
-4 6 -3 10 2 9 28 -5 45 2 39 17 -3 8 -2 12 4 9 6 -3 10 0 10 7 0 10 3 9 10
-2 8 -12 10 -12 16 3 3 9 12 17 20 17 8 0 14 5 14 10 0 6 9 10 21 10 11 0 17
4 14 10 -3 5 1 10 9 10 8 0 20 8 25 17 6 10 11 12 11 5 0 -8 6 -6 19 5 41 37
51 44 51 33 0 -7 5 -6 14 2 8 7 12 16 10 20 -3 4 5 5 17 3 15 -3 19 0 15 10
-3 9 1 12 14 10 11 -2 19 1 17 6 -1 6 13 19 30 28 18 10 30 21 26 25 -3 3 1 6
9 6 9 0 23 10 32 22 9 13 14 16 10 8 -4 -8 6 0 23 17 16 18 33 30 36 26 4 -3
7 -1 7 6 0 7 7 11 14 8 10 -4 13 -1 10 8 -4 10 0 13 15 10 12 -2 21 1 21 7 0
15 47 57 56 49 4 -3 4 -1 0 6 -4 7 6 26 23 44 17 17 28 35 26 40 -3 4 0 11 6
15 8 5 9 3 4 -7 -8 -12 -6 -12 8 0 9 7 17 20 17 28 0 9 6 13 14 10 10 -4 13
-1 9 9 -3 7 0 14 7 14 6 0 8 5 5 10 -3 6 -2 10 4 10 5 0 13 9 16 20 4 11 11
17 17 14 6 -4 8 -2 5 4 -9 14 3 43 14 36 5 -3 9 0 9 7 0 6 9 20 21 30 11 9 19
19 18 21 -6 10 14 47 23 42 7 -5 9 0 5 15 -3 15 1 24 14 32 11 5 17 14 14 20
-4 5 -1 9 6 9 7 0 9 3 6 6 -3 4 -1 16 5 28 7 11 11 25 10 29 -1 5 1 6 5 4 5
-3 13 1 20 8 10 11 10 15 0 18 -9 4 -9 6 1 6 6 1 12 8 12 16 0 7 8 19 18 24 9
6 13 11 8 11 -5 0 -3 7 4 15 6 8 9 19 5 25 -4 6 -1 9 7 8 7 -2 12 4 10 13 -1
9 4 19 12 22 9 4 12 14 9 28 -5 17 -3 20 7 14 10 -6 12 -4 7 8 -3 10 -2 17 4
17 6 0 8 4 4 9 -3 5 1 16 9 24 8 8 12 17 9 21 -4 3 -1 6 6 6 7 0 10 4 6 9 -3
5 2 16 10 25 8 8 14 21 13 28 -2 7 2 12 9 11 7 -2 10 4 7 12 -4 8 -1 15 5 15
6 0 11 5 11 11 0 5 -6 7 -12 3 -7 -4 -1 5 13 20 15 14 30 42 33 61 4 19 11 35
16 35 5 0 7 9 5 20 -2 11 0 20 6 20 5 0 8 4 6 9 -1 5 2 8 6 8 11 -2 37 45 31
55 -3 5 2 8 12 8 11 0 15 6 11 20 -3 11 -1 20 4 20 5 0 9 -4 9 -10 0 -5 5 -10
11 -10 5 0 7 6 3 13 -4 6 1 4 11 -5 13 -12 24 -14 41 -8 14 6 26 6 29 0 3 -5
12 -7 20 -4 8 4 13 10 10 14 -3 4 2 11 11 14 9 3 14 12 11 19 -2 6 0 20 5 29
6 13 5 16 -5 12 -11 -4 -13 2 -9 22 3 17 1 25 -6 21 -5 -4 -13 0 -16 9 -3 8
-10 12 -16 9 -6 -4 -7 1 -3 11 5 13 3 15 -8 9 -8 -4 -11 -5 -7 0 4 4 3 15 -2
25 -7 12 -5 17 8 18 35 2 61 -9 67 -28 4 -11 11 -18 16 -15 5 4 9 2 9 -4 0 -6
7 -7 17 -4 12 5 14 3 8 -8 -8 -12 -6 -12 8 0 9 7 17 9 17 4 0 -6 10 -9 23 -9
12 1 31 -2 42 -7 11 -6 56 -11 101 -12 45 -1 87 -6 94 -10 9 -5 11 -4 6 3 -9
15 -5 15 29 2 14 -5 24 -6 21 -2 -6 10 79 7 95 -4 8 -4 9 -3 5 4 -4 7 -3 12 3
12 5 0 12 -6 14 -12 4 -9 6 -9 6 -1 1 6 10 9 21 6 11 -3 17 -10 14 -17 -3 -6
1 -3 9 6 11 14 16 15 27 5 10 -10 11 -9 5 2 -6 11 -4 13 9 8 10 -4 22 -7 27
-7 6 0 7 -6 4 -12 -4 -7 1 -4 9 6 13 17 18 18 29 6 10 -10 9 -11 -2 -5 -10 6
-12 4 -7 -4 6 -9 11 -9 22 0 13 11 19 5 14 -16 -1 -5 4 -5 10 2 9 8 20 8 45
-2 24 -11 35 -11 43 -3 9 9 12 9 12 -1 0 -7 5 -9 10 -6 5 3 10 -1 10 -11 0
-14 2 -15 17 -3 15 12 16 12 10 -6 -7 -19 -6 -19 7 -2 9 12 15 14 18 6 2 -6
17 -11 33 -11 16 0 36 -8 43 -17 12 -14 13 -14 7 3 -6 19 -5 19 13 3 10 -9 22
-14 25 -10 4 3 14 -2 23 -13 8 -10 13 -14 10 -8 -3 7 3 14 15 17 17 5 18 3 8
-9 -10 -12 -9 -13 6 -8 10 4 21 1 26 -7 7 -12 9 -12 9 1 0 13 1 13 10 0 7 -11
10 -12 10 -2 0 10 4 10 15 -2 9 -8 23 -12 32 -9 12 5 14 3 8 -8 -6 -11 -5 -12
6 -2 18 17 32 16 26 -1 -4 -11 0 -13 21 -7 15 3 39 6 55 5 15 0 27 3 27 7 0 5
9 9 21 9 15 0 19 5 15 16 -3 8 -2 13 2 11 9 -6 33 19 25 27 -4 3 -2 6 3 6 5 0
10 9 11 20 1 11 -3 20 -9 20 -6 0 -8 9 -5 19 3 14 1 18 -9 14 -8 -3 -14 1 -14
8 0 14 -58 54 -72 51 -5 -1 -8 6 -9 16 0 11 -2 12 -6 4 -3 -9 -10 -7 -24 9
-10 12 -19 17 -19 10 0 -9 -4 -8 -14 1 -8 7 -11 18 -8 23 3 6 -1 4 -10 -3 -13
-10 -18 -10 -30 2 -11 10 -19 11 -34 3 -17 -9 -17 -9 -6 6 12 14 11 16 -8 12
-16 -3 -20 0 -16 10 3 8 1 15 -5 15 -6 0 -8 7 -5 16 3 8 2 13 -2 10 -14 -8
-93 19 -85 29 4 5 -1 3 -11 -5 -17 -13 -18 -13 -11 -1 6 11 4 13 -8 8 -10 -4
-17 -1 -17 6 0 8 -4 6 -10 -3 -5 -8 -10 -10 -10 -4 0 6 -17 9 -40 8 -24 -1
-37 2 -34 8 4 6 -3 5 -15 -1 -14 -8 -21 -8 -21 -1 0 8 -6 8 -20 0 -14 -7 -20
-7 -20 0 0 5 5 10 11 10 5 0 8 4 4 9 -3 5 4 16 15 24 11 7 17 17 13 20 -3 4 0
7 7 7 7 0 10 3 7 7 -4 3 1 12 11 20 9 8 12 12 5 9 -6 -4 -14 -2 -18 4 -3 5 -1
10 5 10 7 0 10 7 6 15 -3 8 0 15 6 15 6 0 3 9 -7 20 -18 20 -18 21 1 14 17 -7
17 -6 5 9 -11 14 -11 18 2 23 9 3 14 16 13 35 -2 20 3 29 13 30 9 1 5 5 -9 9
-20 6 -21 8 -6 9 16 1 17 4 8 13 -14 14 -16 42 -3 34 5 -4 7 3 4 14 -3 11 -9
18 -13 15 -14 -9 -5 30 10 43 8 8 9 11 2 7 -9 -5 -11 0 -8 19 3 15 0 26 -7 26
-6 0 -2 7 9 16 10 8 14 13 8 10 -7 -3 -15 1 -18 10 -3 8 -2 12 4 9 6 -3 10 -1
10 4 0 6 -5 11 -11 11 -8 0 -8 5 1 15 10 12 9 15 -5 15 -11 0 -15 5 -12 14 3
8 1 17 -6 20 -9 3 -8 5 1 5 10 1 10 6 1 24 -12 21 -11 21 7 7 18 -14 18 -14 2
5 -9 11 -18 31 -20 45 -1 14 -9 31 -16 39 -10 10 -10 16 -2 21 8 5 7 9 -4 13
-9 4 -16 13 -16 22 0 8 -6 15 -12 15 -10 0 -10 2 0 9 11 7 11 9 -1 14 -8 3
-23 31 -31 62 -12 38 -21 53 -29 48 -7 -4 -5 2 3 12 9 11 10 16 3 11 -8 -4
-13 -2 -13 4 0 6 -4 9 -9 5 -6 -3 -8 4 -6 15 3 15 -2 20 -18 21 -12 0 -16 3
-10 6 16 6 -8 33 -29 33 -10 0 -9 3 2 10 13 8 13 10 -1 10 -9 0 -16 7 -16 14
0 11 5 12 17 6 10 -5 20 -7 22 -4 6 5 54 16 75 17 7 0 15 7 18 15 4 12 8 12
22 1 15 -13 15 -12 5 7 -9 18 -8 20 11 19 12 -1 28 4 35 12 8 7 18 10 24 7 7
-4 8 -2 4 4 -3 6 4 21 16 33 13 12 17 18 9 14 -9 -5 -12 -4 -7 3 4 7 15 12 24
12 14 0 14 2 3 9 -11 7 -9 10 8 16 14 4 20 12 17 21 -3 8 -2 12 3 9 5 -3 12
-1 16 5 3 5 1 10 -6 10 -8 0 -8 4 1 15 8 10 9 15 2 15 -6 0 -9 7 -6 15 4 8 -1
17 -10 21 -9 3 -16 16 -16 28 0 17 -2 18 -10 6 -8 -12 -10 -11 -10 8 0 20 -16
27 -56 21 -4 0 -10 4 -14 11 -4 6 -17 12 -28 13 -12 1 -22 5 -22 10 0 5 -7 4
-16 -4 -10 -8 -18 -9 -22 -3 -8 12 -53 13 -46 2 3 -4 0 -8 -5 -8 -6 0 -11 6
-11 13 0 8 -4 7 -10 -3 -8 -12 -10 -12 -10 5 0 17 -2 17 -10 5 -5 -8 -10 -10
-10 -4 0 7 -7 15 -16 18 -13 5 -14 4 -6 -7 9 -10 8 -14 -3 -14 -8 0 -15 5 -15
10 0 5 -7 6 -15 3 -9 -3 -18 1 -22 10 -5 13 -7 13 -14 2 -7 -10 -9 -11 -9 0 0
7 -5 10 -10 7 -5 -3 -10 -1 -10 6 0 6 -8 9 -20 6 -11 -3 -27 1 -35 9 -8 9 -16
10 -20 4 -4 -6 -13 -5 -25 2 -10 7 -16 17 -12 23 3 5 -2 4 -11 -4 -9 -7 -17
-9 -17 -4 0 5 -12 10 -26 11 -15 1 -33 7 -41 13 -7 7 -16 9 -20 6 -3 -4 -12
-2 -20 4 -10 9 -13 7 -14 -7 0 -11 -3 -14 -6 -6 -2 6 -13 12 -23 12 -10 0 -22
5 -26 11 -3 6 -15 9 -25 6 -11 -3 -19 0 -19 6 0 7 -5 5 -10 -3 -7 -11 -10 -11
-10 -2 0 10 -5 10 -22 1 -22 -12 -22 -11 -8 6 14 17 13 18 -7 13 -13 -4 -26
-2 -29 4 -4 6 -10 5 -16 -3 -7 -10 -11 -11 -14 -3 -3 7 -14 10 -24 7 -11 -3
-20 0 -20 6 0 6 -5 11 -11 11 -5 0 -7 -4 -4 -10 3 -6 -1 -7 -9 -4 -9 3 -13 11
-10 18 3 6 -2 2 -10 -8 -12 -15 -16 -16 -16 -5 0 8 -3 10 -8 4 -11 -16 -42
-17 -60 -3 -12 10 -14 10 -8 1 5 -10 -7 -13 -48 -13 -31 0 -56 -4 -56 -10 0
-5 -5 -10 -11 -10 -5 0 -7 6 -3 13 6 9 5 9 -8 0 -8 -7 -18 -10 -21 -6 -4 3 -9
-2 -13 -11 -3 -9 -10 -16 -16 -16 -5 0 -6 5 -3 10 3 6 -1 10 -9 10 -9 0 -16
-5 -16 -11 0 -5 -5 -7 -12 -3 -8 5 -9 2 -4 -11 5 -13 3 -15 -6 -8 -18 14 -50
12 -44 -2 4 -13 -22 -14 -42 -2 -8 6 -10 3 -5 -9 4 -12 3 -15 -5 -10 -7 4 -12
3 -12 -2 0 -5 -11 -8 -25 -7 -14 2 -28 -1 -31 -6 -3 -6 -12 -5 -22 3 -14 11
-15 10 -9 -7 6 -16 3 -15 -13 5 -13 16 -18 18 -14 7 5 -13 2 -17 -15 -14 -11
2 -24 6 -27 10 -12 12 -26 8 -18 -5 5 -8 1 -8 -10 1 -9 8 -36 14 -59 14 -23 0
-51 4 -62 10 -19 10 -19 9 -5 -9 15 -18 14 -18 -14 0 -18 11 -26 13 -21 5 5
-8 -1 -6 -13 5 -20 17 -22 18 -28 2 -4 -11 -9 -14 -13 -7 -4 6 -19 12 -34 13
-15 1 -27 7 -27 13 0 6 -3 7 -8 0 -11 -16 -32 -16 -26 -1 4 11 0 13 -15 9 -12
-3 -29 1 -38 8 -14 12 -16 12 -9 0 6 -9 5 -12 -5 -9 -8 3 -13 12 -11 19 1 8
-4 5 -13 -5 -8 -11 -15 -14 -15 -8 0 7 -7 12 -15 12 -8 0 -15 5 -15 11 0 5 -4
7 -10 4 -12 -8 -12 -8 -1 33 8 27 6 34 -11 46 -11 8 -17 19 -14 25 5 7 1 8 -9
5 -10 -4 -15 -2 -13 7 2 8 -4 13 -14 13 -10 -1 -16 3 -15 10 1 6 -5 10 -13 8
-8 -2 -12 -1 -8 3 10 10 -17 35 -37 35 -9 0 -13 5 -10 10 3 6 -1 10 -9 10 -9
0 -16 5 -16 10 0 6 -9 10 -19 10 -11 0 -27 10 -35 22 -9 12 -16 19 -16 14 0
-5 -9 -1 -19 8 -11 10 -24 15 -30 12 -5 -4 -13 -1 -17 5 -5 8 -3 9 6 4 9 -5
11 -4 6 3 -4 7 -16 12 -26 12 -10 0 -26 10 -34 22 -9 12 -16 19 -16 15 0 -4
-9 -3 -20 3 -11 6 -18 15 -15 20 3 5 -3 7 -14 5 -14 -3 -18 1 -14 11 4 10 0
12 -11 8 -10 -4 -24 2 -35 15 -10 11 -23 21 -30 21 -6 0 -11 5 -11 10 0 6 -7
10 -15 10 -8 0 -15 5 -15 10 0 6 -7 10 -15 10 -8 0 -15 5 -15 10 0 6 -7 10
-16 10 -8 0 -12 5 -9 10 3 6 2 10 -4 10 -5 0 -13 9 -16 21 -4 11 -9 18 -12 15
-7 -7 -32 17 -26 27 2 4 -3 10 -11 13 -9 3 -16 13 -16 21 0 8 -4 12 -8 9 -5
-3 -14 4 -22 14 -8 10 -17 17 -22 14 -4 -3 -5 2 -2 10 3 9 1 16 -5 16 -19 0
-62 48 -48 53 7 3 4 6 -6 6 -18 1 -75 50 -60 52 4 0 -2 4 -15 10 -13 5 -20 13
-17 19 3 5 -1 10 -10 10 -14 0 -41 45 -36 63 1 5 -4 5 -10 1 -11 -6 -59 40
-59 58 0 5 -4 7 -9 4 -5 -3 -11 4 -14 15 -3 12 -10 18 -16 14 -6 -3 -11 0 -11
7 0 17 -36 48 -46 40 -4 -4 -4 2 0 12 6 17 4 17 -11 5 -10 -7 -15 -10 -11 -5
10 12 -10 46 -27 46 -8 0 -15 6 -15 14 0 8 -5 18 -12 22 -7 4 -8 3 -4 -4 4 -7
5 -12 2 -12 -3 0 -12 12 -20 28 -9 16 -16 21 -17 12 0 -8 -4 -4 -8 10 -4 15
-14 24 -24 24 -9 -1 -16 1 -15 5 2 20 -4 30 -22 36 -11 3 -20 12 -20 18 0 7
-9 19 -19 27 -11 7 -18 17 -15 22 3 4 -1 8 -9 8 -7 0 -20 11 -27 25 -7 13 -17
22 -21 20 -7 -5 -25 33 -21 47 1 4 -5 5 -13 2 -9 -4 -15 0 -15 10 0 9 -7 16
-15 16 -9 0 -19 8 -22 18 -8 20 -21 36 -45 60 -10 9 -18 21 -18 27 0 6 -9 17
-20 25 -11 8 -20 20 -20 26 0 7 -4 14 -9 16 -5 2 -11 9 -13 17 -2 7 -13 25
-25 39 -13 14 -23 31 -23 38 0 8 -7 14 -15 14 -18 0 -20 16 -2 24 6 3 3 4 -7
3 -10 -1 -21 4 -24 12 -3 9 0 11 9 7 8 -4 4 1 -7 11 -12 10 -27 32 -35 50 -7
17 -18 29 -23 26 -5 -4 -7 1 -3 10 4 11 1 17 -9 17 -8 0 -12 5 -9 10 3 6 1 10
-6 10 -7 0 -9 3 -6 7 4 3 -1 12 -11 20 -9 8 -11 12 -4 8 19 -10 14 2 -10 25
-12 11 -19 23 -15 26 3 4 -1 13 -9 21 -8 9 -13 22 -10 30 3 8 1 11 -4 8 -6 -3
-10 1 -10 9 0 9 -6 16 -12 16 -9 0 -8 4 2 10 10 6 11 10 3 10 -7 0 -13 9 -13
21 0 12 -4 17 -11 14 -6 -4 -10 -1 -8 6 4 32 -2 60 -11 54 -6 -4 -10 7 -10 24
0 17 -4 31 -10 31 -5 0 -10 11 -10 25 0 14 -5 25 -11 25 -6 0 -9 7 -5 15 3 8
2 15 -3 15 -5 0 -12 11 -15 25 -4 15 -11 23 -17 19 -7 -4 -7 1 0 15 8 15 9 21
1 21 -6 0 -9 4 -6 8 2 4 1 14 -4 21 -4 8 -4 27 0 43 5 16 5 26 0 23 -5 -3 -11
-1 -15 5 -3 5 -2 10 3 10 5 0 7 12 5 28 -2 15 -4 36 -4 47 0 10 -5 26 -12 34
-9 11 -9 13 0 8 6 -4 14 -3 18 3 3 5 -1 10 -9 10 -9 0 -13 6 -10 14 3 8 1 17
-5 20 -7 4 -7 15 -1 31 6 16 6 27 -1 31 -6 4 -5 11 3 22 11 13 11 14 -1 7 -11
-6 -13 -3 -9 13 4 12 2 20 -3 16 -5 -3 -9 0 -9 5 0 6 6 11 13 11 8 0 8 3 1 8
-6 4 -10 19 -9 35 1 15 -3 27 -9 27 -7 0 -7 3 -1 8 14 10 17 32 4 32 -5 0 -8
4 -4 9 3 5 1 13 -5 16 -8 5 -7 12 2 22 15 19 15 23 -4 34 -10 7 -10 9 0 9 8 0
10 6 5 18 -5 9 -8 72 -8 139 0 78 -4 119 -10 115 -5 -3 -5 1 1 9 12 15 12 78
0 97 -3 6 -2 13 3 16 10 7 9 25 -2 44 -5 6 -4 12 1 12 12 0 10 53 -3 62 -6 5
-4 8 5 8 13 0 13 1 0 10 -13 9 -13 11 0 20 11 7 11 10 2 10 -10 0 -10 5 -1 21
8 16 8 20 -1 14 -9 -6 -9 -2 -1 14 7 12 8 21 2 21 -6 0 -6 11 -1 30 6 21 5 30
-3 30 -8 0 -8 3 1 9 8 4 14 12 14 16 0 4 -6 12 -14 16 -8 6 -9 12 -3 17 6 4
10 30 10 57 0 28 5 53 10 57 6 5 6 8 -2 8 -8 0 -9 9 -3 29 5 19 4 33 -3 40 -8
8 -8 11 1 11 10 0 10 5 2 20 -9 16 -8 20 5 20 15 0 15 1 1 16 -21 20 -20 28 0
20 14 -5 15 -4 4 9 -7 9 -10 18 -7 22 4 3 2 15 -4 26 -8 14 -8 18 0 13 13 -9
13 -9 2 32 -8 26 -7 34 5 39 12 4 12 8 -3 20 -10 8 -12 11 -4 7 10 -5 13 -3 8
8 -3 9 0 21 6 28 9 10 9 12 -4 7 -12 -4 -15 0 -11 19 2 13 9 21 14 18 6 -4 2
6 -8 22 -11 15 -13 25 -7 21 10 -6 11 0 7 22 -4 20 -1 37 7 48 8 10 9 14 2 10
-6 -4 -14 -3 -18 3 -3 5 -1 10 5 10 6 0 9 4 5 9 -11 18 -12 71 -2 71 7 0 7 4
-1 12 -7 7 -8 17 -2 29 7 12 6 22 -4 31 -11 11 -11 16 1 27 11 10 11 16 2 27
-6 8 -9 14 -5 14 3 0 1 11 -4 25 -5 13 -6 27 -1 29 11 7 6 108 -7 132 -7 13
-7 25 -1 37 7 12 6 17 -2 17 -7 0 -4 7 7 15 10 8 15 15 9 14 -22 -3 -27 2 -15
16 7 8 8 15 3 15 -5 0 -8 27 -7 60 0 37 -3 60 -10 60 -6 0 -4 5 4 10 13 9 13
10 0 10 -12 0 -12 2 -2 9 11 6 10 10 -5 15 -17 7 -17 8 1 22 11 8 14 14 7 14
-7 0 -10 4 -6 9 3 5 0 13 -6 17 -8 4 -7 9 2 15 12 8 11 11 -1 19 -13 9 -13 10
0 10 12 0 13 2 1 9 -11 7 -11 9 0 14 9 4 10 6 2 6 -7 1 -10 8 -7 16 4 8 0 23
-7 32 -10 12 -10 15 -1 9 6 -4 12 -3 12 1 0 5 -6 15 -12 22 -11 11 -10 12 0 6
11 -6 11 -3 1 13 -11 17 -10 24 2 38 12 15 12 17 0 9 -11 -6 -13 -4 -8 8 3 9
3 18 -1 21 -5 3 -7 25 -6 50 1 32 -2 44 -10 39 -6 -4 -5 1 3 10 10 13 10 17 1
17 -10 0 -10 3 0 15 10 12 10 15 -1 15 -11 0 -11 2 1 10 12 8 12 10 1 10 -8 0
-11 7 -8 20 3 10 0 21 -7 24 -7 3 -7 5 0 5 11 1 10 63 -1 81 -3 6 -1 10 6 10
10 0 10 3 1 12 -14 14 -16 32 -2 23 6 -3 7 1 4 9 -3 9 -9 14 -13 11 -11 -6 -7
39 4 47 6 5 4 8 -5 8 -13 0 -13 1 0 10 9 6 10 10 3 10 -6 0 -12 8 -12 18 1 28
-12 85 -23 106 -7 13 -7 16 1 12 16 -10 13 10 -4 28 -18 18 -20 30 -2 20 8 -6
8 -3 -2 9 -7 9 -11 23 -7 32 3 8 0 14 -6 12 -7 -1 -12 9 -12 23 -1 14 -7 30
-15 36 -8 6 -11 16 -7 22 4 7 2 12 -4 12 -7 0 -10 6 -7 14 3 8 1 16 -4 18 -5
2 -11 13 -12 26 0 12 -7 22 -14 22 -6 0 -10 9 -8 20 2 11 -1 19 -8 17 -7 -1
-11 4 -10 11 2 6 -2 12 -8 12 -5 0 -7 5 -4 10 3 6 1 10 -6 10 -7 0 -10 3 -7 6
3 3 -4 16 -16 28 -31 33 -56 69 -56 79 0 4 -5 5 -12 1 -7 -4 -8 -3 -4 5 8 13
-18 44 -28 33 -4 -3 -9 4 -13 16 -3 12 -9 19 -14 16 -5 -3 -9 -1 -9 5 0 15
-42 51 -51 45 -5 -3 -6 2 -3 10 6 15 -6 21 -29 17 -5 -1 -6 3 -2 9 3 5 1 10
-5 10 -6 0 -8 5 -4 12 5 7 3 8 -5 3 -8 -4 -19 1 -28 15 -8 12 -21 19 -29 16
-9 -3 -11 0 -7 11 5 13 2 15 -11 10 -9 -4 -15 -3 -12 1 3 5 -5 15 -16 23 -12
8 -30 22 -40 32 -10 9 -18 12 -18 7 0 -6 -12 2 -27 18 -16 15 -21 19 -13 9 14
-19 14 -19 -7 -6 -13 8 -23 17 -23 20 0 7 -39 22 -52 20 -4 0 -4 7 -1 17 3 9
2 14 -2 9 -5 -4 -15 -1 -24 7 -9 8 -27 16 -41 18 -14 1 -32 11 -41 21 -9 9
-24 17 -33 17 -9 0 -16 5 -16 10 0 6 -9 10 -20 10 -12 0 -20 7 -20 18 0 13 -2
14 -9 4 -7 -11 -9 -11 -14 2 -4 9 -14 16 -24 16 -15 0 -16 2 -3 10 8 5 10 10
4 10 -5 0 -16 -6 -23 -12 -11 -10 -13 -10 -7 0 4 7 1 12 -8 12 -9 0 -16 4 -16
8 0 5 -16 14 -35 22 -19 8 -35 17 -35 22 0 4 -7 8 -15 8 -8 0 -15 5 -15 10 0
6 -9 10 -20 10 -11 0 -20 5 -20 12 0 6 -3 9 -6 5 -3 -3 -22 3 -41 14 -19 11
-38 17 -43 14 -5 -3 -12 0 -16 6 -4 7 -3 9 4 5 6 -3 14 -1 18 6 4 7 4 10 -1 6
-4 -4 -17 -3 -28 3 -15 9 -18 8 -11 -3 4 -7 -3 -4 -16 7 -15 13 -21 15 -16 5
4 -8 0 -6 -8 4 -12 15 -16 16 -16 5 -1 -10 -3 -9 -11 4 -6 9 -14 15 -20 12 -5
-4 -9 -1 -9 4 0 6 -11 11 -25 11 -14 0 -25 6 -25 13 0 8 -4 7 -10 -3 -5 -8
-10 -10 -10 -4 0 6 -14 11 -32 12 -17 0 -35 7 -39 14 -5 7 -9 9 -9 4 0 -5 -6
-3 -14 3 -11 9 -15 9 -19 -1 -4 -10 -7 -10 -15 1 -10 13 -59 22 -129 22 -18 0
-33 5 -33 11 0 6 -9 8 -20 5 -18 -5 -24 3 -22 24 1 4 -8 4 -20 1 -16 -4 -19
-2 -13 9 6 11 5 11 -5 2 -10 -9 -17 -7 -34 8 -11 11 -29 18 -38 15 -10 -2 -15
0 -12 5 6 10 -36 29 -48 22 -5 -2 -8 1 -8 6 0 6 -7 11 -15 11 -8 0 -15 4 -15
10 0 5 -7 7 -15 4 -8 -4 -17 1 -21 9 -3 9 -12 13 -20 10 -9 -3 -14 1 -14 12 0
13 -3 15 -13 7 -9 -8 -16 -6 -25 8 -6 11 -18 17 -26 14 -7 -3 -20 2 -29 10 -9
9 -21 16 -27 16 -6 0 -18 7 -27 15 -8 8 -19 13 -24 10 -5 -4 -9 -1 -9 4 0 6
-9 11 -21 11 -11 0 -17 5 -14 10 3 6 -3 10 -14 10 -12 0 -21 5 -21 11 0 6 -9
9 -19 6 -14 -3 -18 -1 -14 9 3 9 -2 14 -17 14 -14 0 -19 4 -14 12 5 7 2 9 -7
6 -9 -3 -26 5 -40 20 -13 14 -19 23 -13 19 6 -3 20 1 30 11 11 9 26 18 34 20
8 2 17 8 18 13 2 5 8 7 13 3 5 -3 9 0 9 6 0 6 5 8 10 5 6 -3 10 -1 10 5 0 7 6
10 14 7 8 -3 16 2 19 15 3 11 10 17 15 14 6 -3 13 1 16 10 3 8 10 12 16 9 9
-6 14 8 11 28 -1 5 3 6 9 2 5 -3 10 -1 10 5 0 7 9 9 23 6 12 -3 16 -3 9 0 -9
4 -6 13 13 29 14 13 25 29 25 35 0 6 5 8 10 5 6 -3 10 -1 10 5 0 6 5 8 10 5 6
-3 10 -2 10 4 0 15 46 62 53 54 4 -3 7 2 7 13 0 16 2 17 10 4 9 -13 10 -13 11
0 1 8 1 19 0 23 -1 5 2 6 7 3 5 -3 18 3 29 14 16 14 23 16 32 7 7 -7 11 -7 9
-2 -2 6 0 10 4 10 4 0 13 9 21 19 8 11 19 16 25 12 7 -4 12 -2 12 4 0 6 4 9 9
5 5 -3 12 -1 16 5 4 6 11 7 17 4 7 -4 8 -2 4 4 -5 8 0 12 13 12 12 0 21 5 21
11 0 5 4 8 9 4 5 -3 13 0 16 6 4 5 14 8 22 5 8 -3 11 -1 8 4 -3 6 1 10 10 10
10 0 13 5 9 13 -6 9 -5 9 7 1 11 -9 17 -9 26 1 6 7 9 16 5 21 -4 4 -1 4 6 0 7
-4 19 -2 27 4 8 7 21 10 29 7 11 -4 13 -1 9 10 -4 11 -2 14 5 9 7 -4 12 -3 12
3 0 5 11 8 25 6 22 -2 23 0 13 13 -9 11 -9 14 -1 9 7 -4 18 2 27 14 8 12 19
18 25 14 6 -3 11 1 11 10 0 9 4 14 9 10 5 -3 12 4 16 15 4 11 11 17 17 14 8
-5 9 -1 5 10 -4 10 -3 15 3 11 13 -8 43 22 35 35 -4 6 -3 10 2 9 17 -3 36 1
30 7 -8 9 16 33 27 26 5 -3 7 2 3 11 -3 9 0 18 9 21 9 4 12 11 8 18 -5 8 0 7
11 -2 17 -14 18 -14 6 8 -10 18 -9 22 4 22 9 0 13 5 10 10 -3 6 1 13 9 16 9 3
16 10 16 16 0 5 -6 6 -12 2 -7 -5 -3 5 10 20 12 16 19 32 16 37 -3 5 -1 9 5 9
6 0 13 11 17 25 3 14 10 25 16 25 5 0 7 4 3 9 -3 5 -1 12 5 16 6 4 8 10 5 15
-3 5 -1 11 4 15 5 3 8 14 6 25 -2 12 -1 18 4 16 4 -3 13 4 20 16 8 13 9 18 1
13 -8 -5 -7 0 1 13 7 12 16 19 20 16 5 -2 6 5 4 16 -2 11 0 20 5 20 5 0 19 17
32 38 13 22 29 37 36 35 6 -3 12 2 12 11 0 9 3 15 8 15 19 -3 33 2 28 10 -3 5
0 8 7 7 6 0 13 1 14 4 1 3 9 19 17 35 9 17 12 31 6 33 -5 2 -5 13 0 27 6 15 6
27 -1 30 -5 4 -7 11 -4 16 4 5 2 9 -3 9 -5 0 -8 14 -7 30 1 17 -3 30 -8 30 -5
0 -4 7 3 15 11 13 10 14 -2 10 -10 -4 -15 4 -16 32 -2 21 -8 41 -15 45 -7 4
-8 8 -4 8 4 0 3 10 -4 21 -9 17 -8 20 3 13 8 -5 7 1 -4 18 -12 19 -14 29 -7
34 6 3 7 9 3 13 -16 11 -33 71 -22 77 5 4 3 13 -6 23 -9 10 -13 21 -9 24 3 4
0 7 -8 7 -11 0 -11 2 1 10 10 6 11 10 3 10 -7 0 -13 11 -13 25 0 14 -3 25 -7
25 -5 0 -9 14 -9 31 -1 17 -7 35 -15 40 -8 5 -9 9 -3 9 6 0 11 7 11 15 0 8 -4
12 -8 10 -4 -3 -9 2 -13 10 -3 8 0 15 6 15 7 0 3 7 -8 16 -10 8 -13 13 -6 9 6
-3 12 -1 12 4 0 6 -5 11 -11 11 -5 0 -8 4 -5 8 3 5 -1 21 -9 36 -8 14 -10 24
-5 21 6 -4 10 -1 10 4 0 6 -5 11 -10 11 -6 0 -10 8 -8 18 2 9 -2 16 -8 15 -6
-1 -11 4 -11 12 0 8 5 12 10 8 5 -3 4 4 -3 17 -6 12 -9 28 -6 36 3 8 2 12 -3
9 -5 -3 -12 -1 -15 4 -4 5 -2 12 4 16 6 4 4 15 -6 31 -9 13 -18 38 -19 55 -2
17 -9 35 -16 40 -12 7 -11 9 1 9 9 0 11 3 5 8 -6 4 -12 21 -14 37 -1 17 -6 35
-9 40 -7 10 -7 12 -13 55 -2 14 -9 30 -15 37 -7 7 -10 26 -9 42 2 19 -1 28 -8
24 -6 -4 -8 0 -4 10 3 10 3 17 -2 17 -5 0 -7 11 -6 25 2 14 -1 23 -6 19 -5 -3
-9 9 -9 25 0 17 -5 31 -11 31 -6 0 -9 9 -6 20 3 11 2 20 -3 20 -4 0 -11 7 -14
16 -6 15 -4 15 11 3 17 -13 17 -13 0 7 -9 11 -14 24 -10 27 3 4 0 7 -8 7 -11
0 -11 2 1 10 13 8 13 10 -2 10 -14 0 -17 7 -14 29 2 20 -2 32 -11 36 -9 3 -13
12 -9 20 3 9 -1 18 -9 21 -7 3 -12 11 -9 19 3 7 -4 29 -16 49 -11 21 -15 34
-9 31 6 -4 3 4 -6 19 -10 14 -14 26 -10 26 4 0 2 7 -5 15 -7 8 -9 15 -4 15 4
0 -1 7 -12 16 -10 8 -13 13 -6 9 6 -3 12 -1 12 4 0 6 -5 11 -11 11 -5 0 -7 5
-4 10 3 6 1 10 -5 10 -6 0 -8 5 -5 10 3 6 2 10 -4 10 -6 0 -7 7 -4 17 5 12 3
14 -8 8 -11 -7 -11 -5 1 10 9 11 10 16 3 11 -12 -6 -18 5 -14 27 0 4 -3 7 -7
7 -5 0 -9 7 -10 15 -1 8 -3 22 -4 30 -1 8 -5 15 -10 15 -4 0 -8 9 -8 20 0 11
-5 20 -11 20 -5 0 -7 5 -4 10 3 6 2 10 -4 10 -6 0 -7 7 -4 17 5 12 3 14 -7 8
-10 -6 -12 -4 -7 8 3 10 2 17 -4 17 -6 0 -8 4 -4 9 3 5 1 12 -5 16 -6 4 -8 11
-5 16 4 5 1 9 -5 9 -6 0 -8 5 -5 10 3 6 1 10 -5 10 -6 0 -8 5 -5 10 3 6 1 10
-5 10 -7 0 -10 6 -7 14 3 8 1 16 -4 18 -5 2 -11 13 -12 25 0 13 -7 25 -15 28
-8 3 -11 12 -8 20 3 8 1 15 -5 15 -6 0 -7 5 -4 10 3 6 1 10 -5 10 -6 0 -8 5
-5 11 4 5 -1 20 -12 31 -12 14 -13 18 -3 13 13 -8 13 -7 1 8 -8 10 -11 20 -8
24 4 3 -1 12 -11 19 -11 9 -13 13 -4 14 7 0 10 5 7 10 -4 6 -12 7 -18 3 -7 -4
-5 2 3 12 9 12 10 16 2 11 -9 -6 -11 -1 -8 18 3 15 1 24 -4 21 -5 -3 -11 -1
-15 5 -3 5 0 10 7 10 10 0 10 2 -1 9 -8 5 -10 14 -6 21 5 9 4 11 -3 6 -12 -7
-16 5 -13 33 2 8 -2 10 -10 5 -8 -4 -10 -3 -5 5 4 6 2 19 -6 28 -7 9 -13 19
-13 22 0 3 -2 5 -5 4 -3 -1 -6 15 -7 34 -1 20 -7 39 -13 43 -6 3 -13 17 -15
30 -2 13 -8 26 -13 29 -5 3 -8 14 -6 24 1 9 -2 15 -7 11 -5 -3 -9 2 -9 10 0 9
-6 16 -12 16 -9 0 -8 4 2 10 10 6 11 10 3 10 -7 0 -13 5 -13 11 0 6 -10 25
-22 42 -12 17 -16 27 -7 22 13 -8 -5 17 -39 54 -11 11 -11 15 0 22 10 7 9 9
-4 9 -10 0 -19 5 -19 10 -1 6 -3 15 -4 20 -1 6 -3 15 -4 20 0 5 -7 9 -13 7 -7
-1 -12 4 -11 11 2 6 -2 12 -8 12 -5 0 -8 4 -5 8 3 5 -4 14 -14 22 -10 8 -17
17 -14 22 3 4 0 8 -7 8 -7 0 -10 3 -6 6 8 8 -18 34 -33 34 -6 0 -8 5 -5 10 3
6 1 10 -5 10 -7 0 -9 7 -6 16 3 8 2 12 -4 9 -6 -3 -10 1 -10 10 0 9 -4 13 -10
10 -5 -3 -10 0 -10 7 0 7 -14 22 -30 33 -17 11 -33 28 -36 38 -3 9 -10 17 -15
17 -6 0 -7 5 -4 10 4 6 3 10 -2 9 -21 -4 -33 2 -33 17 0 10 -5 14 -16 10 -8
-3 -13 -2 -10 3 7 11 -18 33 -27 24 -4 -3 -7 -1 -7 6 0 14 -30 47 -30 34 0 -4
-6 -1 -13 8 -12 16 -18 19 -38 19 -5 0 -8 4 -5 9 6 9 -52 38 -66 33 -5 -1 -8
4 -8 12 0 10 -7 13 -20 11 -11 -2 -18 0 -15 5 5 8 -52 34 -67 31 -5 0 -8 4 -8
9 0 6 -3 9 -7 9 -23 -4 -54 2 -49 9 2 4 -5 9 -16 9 -12 1 -24 6 -27 10 -3 4
-22 10 -41 11 -19 2 -37 7 -40 11 -8 12 -170 9 -163 -2 4 -6 0 -8 -10 -4 -10
4 -17 2 -17 -5 0 -6 -9 -3 -20 7 -20 18 -21 18 -14 -1z m-2806 -1454 c0 -5 -4
-10 -10 -10 -5 0 -10 5 -10 10 0 6 5 10 10 10 6 0 10 -4 10 -10z m-20 -16 c8
-8 9 -14 3 -12 -6 2 -11 -1 -11 -6 0 -18 -33 -29 -45 -16 -8 8 -8 11 -1 7 6
-4 17 5 24 18 16 30 14 29 30 9z m-46 -52 c3 -5 -4 -14 -14 -22 -10 -8 -17
-17 -14 -22 3 -4 -2 -8 -11 -8 -9 0 -14 -3 -12 -7 6 -11 -50 -63 -58 -55 -3 4
-3 -1 1 -11 4 -12 -1 -20 -17 -26 -13 -5 -20 -10 -15 -10 4 -1 -13 -21 -38
-46 -25 -25 -46 -50 -46 -56 0 -6 -3 -8 -7 -6 -8 4 -41 -26 -45 -40 -2 -5 -8
-7 -15 -7 -7 1 -12 -1 -11 -5 0 -3 0 -15 -1 -26 -1 -17 -3 -18 -11 -5 -5 8
-10 12 -10 8 0 -5 1 -9 3 -11 1 -1 -13 -18 -32 -36 -20 -20 -39 -30 -48 -26
-13 4 -14 3 -3 -10 7 -8 10 -16 6 -16 -3 -1 -10 -2 -14 -3 -4 0 -27 -20 -52
-43 -24 -24 -46 -40 -49 -37 -3 4 4 13 17 21 12 9 22 22 22 29 0 8 6 14 14 14
8 0 17 9 21 20 3 11 18 29 32 40 14 11 23 20 19 20 -4 0 -1 6 6 14 7 8 16 12
21 9 4 -2 7 2 7 9 0 7 12 23 27 35 14 13 23 23 19 23 -4 0 16 23 43 51 28 28
48 56 44 62 -3 6 -1 7 5 3 7 -4 12 -2 12 3 0 6 7 11 16 11 10 0 14 6 10 15 -3
8 -2 15 3 15 14 0 51 37 44 44 -3 3 0 6 7 6 12 0 60 45 60 56 0 23 52 44 64
26z m1250 -208 c3 -8 2 -12 -4 -9 -6 3 -10 10 -10 16 0 14 7 11 14 -7z m-1769
-334 c3 -5 1 -10 -4 -10 -6 0 -11 5 -11 10 0 6 2 10 4 10 3 0 8 -4 11 -10z
m1760 -1039 c-6 -5 -25 10 -25 20 0 5 6 4 14 -3 8 -7 12 -15 11 -17z m3925
-2801 c0 -5 -2 -10 -4 -10 -3 0 -8 5 -11 10 -3 6 -1 10 4 10 6 0 11 -4 11 -10z
m-456 -3376 c0 -27 4 -52 10 -56 8 -6 8 -8 0 -8 -6 0 -11 -7 -11 -15 0 -8 4
-15 9 -15 5 0 6 -5 2 -12 -13 -21 -14 -59 -1 -51 7 4 5 -2 -3 -12 -14 -17 -13
-18 4 -11 20 7 20 7 0 -15 -10 -12 -14 -20 -8 -16 10 6 14 -29 16 -143 1 -8 6
-21 12 -29 8 -11 8 -13 -1 -7 -9 5 -13 0 -13 -13 0 -12 6 -21 13 -21 7 0 8 -3
2 -8 -13 -9 -15 -42 -3 -42 6 0 5 -6 -2 -15 -7 -9 -8 -15 -2 -15 6 0 10 -29
10 -71 0 -50 4 -74 13 -80 12 -7 12 -9 0 -9 -11 0 -11 -3 0 -17 8 -9 9 -14 3
-10 -6 3 -11 0 -11 -8 0 -8 4 -12 9 -9 13 8 10 -10 -4 -25 -8 -9 -9 -11 -1 -7
14 8 22 -88 9 -112 -8 -14 -7 -15 6 -5 12 10 15 10 15 -2 0 -8 -5 -15 -11 -15
-6 0 -5 -4 3 -9 12 -8 12 -12 2 -24 -8 -11 -9 -17 -1 -22 6 -4 10 -12 9 -18
-3 -27 2 -38 14 -31 8 5 7 2 -2 -9 -11 -14 -12 -23 -2 -43 8 -19 8 -24 0 -18
-9 5 -9 3 -3 -7 5 -8 10 -27 11 -44 2 -46 2 -47 13 -40 7 4 7 -3 0 -19 -5 -15
-6 -26 -1 -26 11 0 9 -19 -2 -37 -5 -7 -4 -13 1 -13 5 0 8 -10 7 -22 -2 -13 4
-34 12 -47 8 -13 10 -20 4 -17 -12 8 -15 -16 -4 -28 11 -11 10 -46 -1 -46 -6
0 -5 -4 3 -9 8 -5 15 -23 15 -39 1 -19 -3 -28 -9 -24 -6 4 -2 -1 8 -10 11 -10
15 -18 10 -18 -5 0 -10 -7 -10 -15 0 -8 3 -15 7 -15 3 0 7 -10 7 -22 1 -13 3
-39 4 -58 1 -19 6 -41 12 -47 5 -7 6 -13 2 -13 -4 0 -2 -7 5 -15 11 -13 10
-15 -6 -9 -17 5 -17 4 -3 -8 10 -8 14 -24 12 -41 -2 -16 0 -26 5 -23 11 6 9
-25 -3 -43 -5 -10 -4 -12 3 -7 12 7 14 4 15 -36 1 -13 6 -27 11 -31 8 -6 7
-10 -1 -14 -10 -3 -10 -8 1 -19 9 -8 13 -27 11 -44 -3 -18 0 -28 5 -25 6 4 10
-10 10 -30 0 -26 3 -34 13 -29 7 5 6 0 -3 -11 -12 -15 -12 -17 -1 -10 11 6 13
4 9 -7 -4 -8 -2 -21 2 -29 5 -8 4 -19 -2 -26 -8 -11 -7 -12 7 -6 15 5 17 3 12
-11 -4 -9 0 -31 9 -48 12 -22 12 -28 2 -22 -10 6 -11 5 -2 -7 6 -8 10 -22 9
-32 -3 -14 0 -15 9 -8 9 8 13 7 13 -4 0 -8 -5 -15 -11 -15 -6 0 -5 -4 2 -9 7
-4 14 -18 15 -29 1 -12 5 -22 10 -22 4 0 5 -5 2 -10 -3 -6 1 -13 10 -16 13 -6
14 -8 3 -15 -10 -7 -11 -9 0 -9 7 0 10 -4 7 -10 -3 -5 -1 -10 5 -10 11 0 36
-58 32 -72 -1 -5 3 -8 9 -8 5 0 7 -4 4 -10 -3 -5 -1 -10 5 -10 6 0 9 -4 6 -9
-3 -5 1 -14 9 -21 8 -7 15 -24 15 -37 0 -19 4 -24 16 -19 8 3 12 2 9 -4 -9
-15 14 -52 28 -44 7 4 9 4 5 -1 -5 -5 3 -23 17 -41 14 -18 25 -38 25 -44 0 -6
5 -8 11 -5 6 4 13 -2 16 -14 3 -12 12 -21 19 -21 8 0 13 -3 13 -7 -3 -18 2
-36 7 -30 10 10 45 -34 37 -46 -3 -5 -2 -7 4 -4 5 3 21 -5 35 -18 14 -13 29
-21 33 -17 4 4 6 2 5 -3 -4 -20 0 -36 9 -31 5 3 11 -1 15 -9 3 -8 12 -15 20
-15 7 0 17 -7 20 -16 3 -8 10 -13 15 -9 5 3 13 0 17 -6 5 -8 3 -9 -7 -4 -12 8
-12 6 0 -8 7 -9 20 -17 28 -17 8 0 11 -5 7 -12 -5 -8 -2 -9 9 -5 9 3 19 1 23
-5 5 -7 2 -8 -6 -3 -9 5 -11 4 -6 -3 4 -7 16 -12 27 -12 11 0 18 -4 15 -9 -3
-5 2 -15 11 -22 14 -12 16 -12 8 1 -4 8 3 5 17 -8 13 -12 29 -19 33 -15 5 5 3
-1 -5 -11 -8 -11 -10 -17 -3 -13 6 4 19 -1 29 -10 10 -10 19 -17 21 -15 9 7
23 1 18 -8 -3 -5 3 -10 14 -10 12 0 21 -4 21 -10 0 -5 9 -10 21 -10 11 0 17
-4 14 -10 -6 -9 8 -14 28 -11 4 0 7 -3 7 -8 0 -5 13 -14 30 -21 16 -7 27 -17
23 -23 -4 -6 0 -8 10 -4 11 4 17 1 17 -9 0 -8 4 -13 9 -10 5 3 12 -1 15 -10 3
-8 10 -13 15 -10 5 4 16 -1 24 -9 9 -8 18 -15 22 -15 4 0 13 -7 22 -15 8 -8
19 -13 24 -10 5 4 9 -1 9 -9 0 -10 6 -13 17 -9 11 4 14 3 9 -5 -6 -11 5 -17
27 -13 4 0 7 -4 7 -10 0 -5 5 -7 10 -4 6 3 10 -1 10 -9 0 -9 5 -16 11 -16 5 0
7 6 4 13 -4 6 2 3 12 -9 10 -11 26 -20 36 -18 9 1 15 -3 14 -9 -1 -6 7 -13 17
-15 11 -2 26 -10 34 -18 7 -8 18 -12 23 -9 5 4 9 1 9 -5 0 -6 4 -9 9 -6 5 4
11 1 13 -4 3 -10 21 -16 51 -19 5 -1 5 -5 2 -11 -3 -5 3 -10 14 -10 31 0 34
-1 56 -16 11 -8 28 -14 38 -14 9 0 20 -7 24 -16 5 -13 7 -13 14 -2 7 10 9 10
9 1 0 -7 9 -13 19 -13 11 0 23 -4 26 -10 3 -5 13 -10 21 -10 9 0 22 -7 30 -15
16 -16 39 -21 30 -7 -3 5 1 9 9 9 8 0 12 -3 10 -6 -2 -4 3 -15 11 -26 8 -10
14 -13 14 -7 0 7 9 3 20 -8 11 -11 28 -17 40 -15 11 2 18 0 15 -6 -4 -5 -1 -9
5 -9 6 0 8 -5 4 -12 -4 -6 -3 -8 4 -4 6 3 13 2 17 -4 3 -5 15 -10 25 -10 10 0
22 -5 26 -12 5 -7 3 -8 -6 -3 -9 5 -11 4 -6 -4 4 -6 12 -8 18 -5 6 4 13 3 17
-2 3 -5 27 -20 53 -33 26 -13 45 -28 41 -34 -4 -7 0 -8 11 -4 13 5 17 3 13 -7
-4 -10 -1 -13 7 -10 7 3 19 -2 26 -11 7 -8 19 -15 26 -15 8 0 14 -4 14 -10 0
-5 6 -7 14 -4 7 3 16 -3 20 -13 6 -15 8 -15 16 -3 6 10 10 11 10 3 0 -7 14
-19 30 -28 17 -9 30 -12 30 -9 0 4 9 -3 19 -15 11 -12 23 -23 28 -24 4 -1 7
-6 5 -11 -2 -5 4 -3 13 4 13 11 16 11 13 0 -2 -7 14 -22 34 -33 21 -11 35 -24
32 -28 -3 -5 1 -6 9 -3 8 3 21 -1 28 -9 8 -8 22 -13 32 -11 9 1 15 -2 12 -6
-3 -5 -1 -11 5 -15 5 -3 10 -2 10 2 0 5 12 8 28 8 15 -1 36 3 47 9 18 8 19 8
6 -8 -12 -14 -12 -16 1 -11 9 4 22 -1 31 -9 9 -9 20 -16 26 -16 6 0 11 -6 12
-12 0 -10 2 -10 6 0 3 9 10 7 23 -8 10 -12 25 -23 32 -25 48 -11 57 -17 45
-30 -7 -7 -18 -10 -27 -5 -8 4 -22 5 -30 3 -13 -4 -13 -3 0 7 13 9 12 11 -5 9
-39 -3 -66 1 -61 9 3 4 -13 7 -35 6 -21 -1 -42 2 -45 7 -3 5 -11 6 -17 2 -16
-10 -68 -5 -84 9 -10 8 -12 8 -8 -3 4 -11 -5 -14 -41 -12 -26 0 -50 6 -54 13
-5 8 -9 6 -14 -6 -6 -16 -8 -16 -16 -4 -6 8 -10 10 -10 5 0 -7 -24 -10 -60 -9
-33 0 -60 -2 -60 -5 0 -4 -24 -7 -52 -9 -29 -1 -55 -7 -57 -13 -2 -7 -6 -7
-12 2 -7 12 -9 12 -9 0 0 -11 -3 -11 -15 -1 -12 10 -15 9 -15 -6 0 -16 -2 -17
-10 -4 -6 9 -10 10 -10 3 0 -7 -9 -10 -21 -8 -15 3 -19 0 -15 -11 4 -10 2 -13
-7 -7 -18 11 -37 12 -37 2 0 -6 -5 -7 -10 -4 -6 4 -17 1 -25 -5 -12 -10 -15
-10 -15 1 0 11 -2 11 -10 -1 -5 -8 -12 -11 -16 -7 -4 4 -13 -1 -19 -10 -10
-13 -16 -15 -27 -6 -11 9 -16 8 -25 -7 -8 -12 -19 -16 -33 -13 -11 3 -20 1
-20 -5 0 -6 -9 -8 -20 -5 -11 3 -20 1 -20 -5 0 -6 -10 -9 -23 -8 -26 3 -70
-27 -59 -40 4 -5 -1 -2 -10 5 -15 11 -19 11 -24 -2 -3 -9 -12 -13 -20 -10 -7
3 -16 -2 -20 -10 -3 -9 -12 -13 -20 -10 -8 3 -14 0 -14 -6 0 -6 -7 -11 -15
-11 -8 0 -15 -5 -15 -11 0 -5 -4 -7 -10 -4 -5 3 -10 1 -10 -5 0 -6 -4 -9 -9
-5 -5 3 -12 1 -16 -5 -4 -6 -10 -8 -15 -5 -5 3 -16 -2 -24 -11 -12 -11 -16
-12 -16 -2 0 10 -3 9 -10 -2 -5 -8 -10 -10 -10 -5 0 6 -8 1 -16 -10 -13 -16
-17 -17 -21 -6 -4 10 -10 8 -24 -10 -10 -13 -19 -18 -19 -11 0 10 -4 10 -15
-2 -9 -8 -23 -12 -32 -9 -9 4 -14 2 -10 -3 3 -5 -6 -14 -19 -21 -13 -6 -22 -7
-18 -2 3 5 -2 6 -10 3 -9 -3 -16 -10 -16 -14 0 -5 -9 -7 -19 -5 -11 2 -22 -2
-24 -9 -3 -7 -19 -12 -35 -11 -23 1 -29 -2 -24 -13 3 -10 1 -13 -7 -8 -6 4
-18 2 -26 -4 -8 -6 -19 -9 -25 -5 -5 3 -10 1 -10 -5 0 -6 -4 -8 -10 -5 -5 3
-10 1 -10 -5 0 -7 -6 -10 -14 -7 -8 3 -17 -1 -20 -9 -3 -8 -17 -14 -30 -14
-14 0 -29 -7 -34 -16 -5 -9 -13 -15 -18 -15 -15 1 -49 -11 -55 -20 -3 -5 -17
-10 -32 -11 -15 -1 -27 -6 -27 -11 0 -4 -4 -6 -9 -3 -5 4 -11 1 -13 -6 -4 -10
-31 -17 -81 -19 -9 0 -15 -4 -12 -10 5 -8 -22 -13 -62 -12 -7 1 -10 -4 -6 -10
4 -6 0 -8 -10 -4 -9 3 -19 2 -22 -3 -3 -5 -14 -7 -25 -5 -11 2 -20 0 -20 -5 0
-4 -12 -7 -26 -5 -14 1 -31 -3 -37 -9 -7 -6 -24 -11 -39 -11 -16 1 -28 -2 -28
-5 0 -7 -77 -3 -97 5 -7 2 -13 -1 -13 -7 0 -7 -7 -3 -16 8 -8 10 -12 13 -8 5
4 -9 2 -12 -7 -9 -8 3 -13 11 -12 17 2 6 -1 11 -6 11 -5 0 -12 7 -15 16 -3 8
-2 12 4 9 6 -3 7 1 4 9 -3 9 -10 16 -15 16 -5 0 -8 3 -8 8 4 21 -2 32 -13 26
-9 -5 -9 -2 1 9 9 12 10 17 2 17 -7 0 -9 5 -6 10 3 6 1 10 -5 10 -7 0 -10 7
-6 15 3 8 -2 19 -12 24 -9 6 -13 11 -8 11 5 0 3 7 -4 15 -6 8 -9 19 -5 25 3 5
1 10 -5 10 -6 0 -9 4 -6 9 3 5 -1 11 -9 15 -9 3 -12 12 -8 22 3 10 0 22 -8 28
-8 6 -14 18 -14 26 0 8 -7 14 -15 12 -12 -3 -12 -1 -3 9 9 9 8 15 -3 26 -8 8
-12 19 -9 24 4 5 1 9 -5 9 -6 0 -8 5 -5 10 3 6 1 10 -4 10 -6 0 -10 3 -10 8 4
21 -3 40 -19 58 -11 11 -18 27 -16 37 1 10 -4 17 -14 17 -8 0 -12 3 -9 7 4 3
1 13 -6 21 -10 13 -9 14 1 8 11 -7 11 -4 0 15 -7 13 -19 32 -26 41 -8 9 -11
22 -6 29 4 8 3 10 -4 5 -7 -4 -12 -1 -12 9 0 9 -4 14 -9 11 -5 -4 -7 3 -4 14
3 11 0 20 -6 20 -6 0 -11 9 -11 20 0 11 -4 20 -10 20 -5 0 -10 5 -10 11 0 5 6
7 13 4 6 -4 3 1 -7 9 -11 9 -14 16 -8 16 7 0 12 5 12 10 0 6 -6 10 -13 10 -7
0 -14 12 -15 27 -1 15 -7 30 -14 34 -6 4 -8 14 -5 23 3 8 0 22 -8 30 -8 8 -12
22 -9 30 4 9 1 16 -6 16 -7 0 -10 7 -6 15 3 8 1 15 -3 15 -5 0 -8 15 -7 34 1
19 -3 34 -8 33 -9 -2 -18 25 -17 56 0 9 -5 17 -10 17 -6 0 -5 9 2 21 8 15 8
19 0 15 -10 -6 -13 0 -10 20 0 4 -5 11 -13 15 -8 6 -9 9 -1 9 6 0 10 8 8 18
-1 9 -7 16 -11 15 -5 -1 -9 18 -9 43 1 24 -3 44 -8 44 -4 0 -5 5 -1 11 3 6 0
15 -7 20 -11 7 -11 9 -1 9 9 0 10 5 4 18 -5 9 -8 25 -7 35 2 9 -1 15 -6 11 -5
-3 -9 6 -9 19 0 13 -3 27 -7 31 -8 8 -9 13 -11 59 -1 19 -6 26 -14 21 -7 -5
-9 -2 -5 9 3 8 0 21 -8 27 -8 6 -12 17 -9 24 3 8 -1 20 -9 27 -8 8 -13 22 -11
31 1 10 -3 16 -9 15 -7 -1 -11 6 -9 16 2 9 -2 17 -8 17 -5 0 -10 6 -10 13 0 8
-9 24 -20 37 -11 12 -17 27 -14 31 3 5 -3 9 -13 9 -11 0 -24 5 -31 12 -9 9
-12 9 -12 -1 0 -11 -3 -11 -17 0 -10 8 -14 9 -10 2 4 -6 4 -14 -1 -17 -4 -2
-9 5 -9 17 -1 12 -7 23 -13 25 -5 2 -8 8 -4 13 3 5 0 9 -6 9 -6 0 -8 5 -5 10
3 6 2 10 -3 10 -5 0 -12 10 -16 23 -3 12 -5 22 -4 22 1 0 -4 10 -11 23 -12 23
-24 98 -25 167 -1 22 -8 46 -16 53 -8 8 -10 11 -4 8 7 -3 15 1 18 10 4 9 2 13
-5 8 -8 -4 -9 1 -4 16 4 13 3 20 -2 17 -5 -4 -10 0 -10 8 0 8 4 12 9 9 4 -3 8
0 8 5 0 6 -6 11 -12 12 -10 0 -10 2 0 6 6 2 10 9 6 14 -11 19 -12 49 -2 55 7
5 8 2 3 -6 -5 -9 -4 -11 4 -6 9 6 9 11 1 21 -8 10 -8 15 1 20 8 6 7 10 -2 16
-12 7 -12 9 0 9 8 0 11 7 8 20 -4 14 0 20 11 20 10 0 13 3 7 8 -13 9 -12 32 3
58 6 12 9 24 5 27 -3 4 0 13 7 22 10 12 10 15 -1 16 -10 0 -11 2 -1 6 6 2 12
12 12 22 0 9 6 23 13 30 10 11 9 12 -3 6 -12 -7 -13 -6 -3 7 7 8 10 18 6 21
-3 4 -1 7 7 7 10 0 10 4 -1 17 -8 9 -9 14 -3 10 7 -4 14 0 18 8 3 8 0 15 -7
15 -7 0 -4 5 5 11 10 5 15 16 12 24 -4 8 -2 15 4 15 11 0 11 18 -1 37 -6 9 -3
11 7 7 11 -4 14 0 11 15 -2 12 1 21 7 21 5 0 8 7 4 15 -3 8 0 15 7 15 8 0 6 4
-3 10 -13 9 -7 14 12 11 4 0 4 7 1 16 -5 11 -3 14 6 8 10 -6 11 -3 2 14 -10
18 -9 21 6 21 14 0 15 2 4 9 -10 6 -10 10 -1 16 6 4 9 13 6 21 -3 9 1 14 12
14 10 0 13 3 7 8 -14 10 -17 32 -5 32 5 0 10 12 10 26 0 14 4 23 9 20 4 -3 7
6 5 19 -1 14 2 25 7 25 6 0 9 7 7 16 -2 10 3 19 11 22 9 3 11 0 6 -8 -5 -9 -4
-11 4 -6 9 6 9 11 1 21 -9 11 -6 14 12 17 13 2 22 9 20 16 -1 8 2 11 9 6 7 -4
18 1 26 11 7 11 13 15 13 10 0 -5 7 1 16 13 8 12 12 28 8 35 -6 9 -5 9 7 0 12
-9 14 -4 14 37 1 29 -3 46 -9 43 -5 -4 -7 1 -3 10 4 11 2 14 -9 10 -14 -5 -19
27 -15 100 0 15 -3 27 -9 27 -5 0 -10 5 -10 11 0 5 4 8 8 5 12 -7 10 38 -2 47
-7 4 -8 10 -1 15 12 9 16 44 4 36 -10 -6 -7 25 4 43 4 6 2 15 -4 19 -8 5 -9 3
-4 -6 6 -9 4 -11 -5 -5 -10 6 -9 11 5 22 11 7 14 13 8 13 -11 0 -11 45 0 56 4
4 2 13 -3 19 -11 13 -9 49 3 61 3 4 2 14 -3 24 -5 10 -6 20 -3 24 4 3 8 34 9
68 2 36 8 65 16 69 11 7 11 9 0 9 -15 0 -12 31 3 42 6 5 5 8 -4 8 -11 0 -11 3
0 17 12 14 12 16 0 8 -11 -6 -12 -5 -5 6 12 20 14 38 3 45 -6 3 -5 11 2 20 6
7 9 21 5 29 -3 10 1 15 12 15 10 0 13 3 7 8 -14 10 -17 32 -7 46 4 6 8 28 7
49 0 20 2 37 6 37 3 0 4 11 1 25 -2 14 0 25 5 25 5 0 9 20 9 44 -1 24 2 42 5
40 4 -2 10 3 13 12 5 12 2 15 -10 10 -15 -6 -15 -4 -3 10 8 10 15 29 15 43 3
41 3 43 17 35 8 -5 8 -2 -2 9 -11 14 -11 17 0 17 11 0 11 2 -1 10 -9 6 -11 10
-3 10 7 0 10 7 6 17 -5 11 -3 14 6 8 10 -6 11 -3 1 15 -10 18 -9 21 1 15 9 -6
11 -3 6 8 -3 9 -1 19 5 23 7 4 6 10 -3 16 -11 8 -11 9 1 5 11 -2 15 -17 14
-53z m-4904 -185 c0 -5 -6 -7 -12 -3 -7 4 -5 -1 4 -12 14 -16 15 -23 6 -32 -7
-7 -8 -12 -2 -12 5 0 10 -10 10 -22 1 -13 5 -34 9 -47 7 -19 5 -22 -6 -16 -11
6 -12 5 -1 -6 6 -7 12 -26 12 -41 0 -16 6 -28 13 -28 8 0 7 -4 -3 -10 -8 -5
-10 -10 -4 -10 5 0 11 -18 13 -41 1 -30 -1 -39 -10 -33 -8 4 -9 3 -5 -5 4 -6
11 -9 16 -6 4 3 11 -2 14 -11 3 -8 2 -12 -4 -9 -6 3 -10 1 -10 -4 0 -6 3 -11
8 -11 12 0 12 -74 -1 -82 -9 -6 -9 -8 1 -8 7 0 12 -13 12 -31 0 -21 4 -28 13
-23 8 5 8 2 -2 -9 -11 -14 -11 -17 0 -17 12 0 12 -2 0 -9 -7 -5 -9 -11 -4 -14
5 -3 9 -18 8 -34 0 -15 4 -31 10 -35 6 -4 1 -8 -10 -8 -18 -1 -18 -2 3 -11 15
-6 21 -13 15 -21 -10 -17 -13 -38 -5 -38 4 0 8 -13 8 -30 1 -20 -2 -27 -10
-23 -6 4 -5 -1 3 -10 7 -9 11 -26 8 -36 -3 -12 1 -22 10 -25 10 -4 11 -10 4
-25 -6 -10 -7 -21 -3 -25 3 -4 0 -11 -8 -16 -13 -8 -13 -10 0 -10 9 0 16 -9
16 -20 0 -11 -3 -20 -6 -20 -3 0 -6 -9 -6 -20 0 -11 3 -20 7 -20 4 0 10 -7 13
-16 3 -8 2 -13 -3 -9 -16 9 -18 -19 -3 -42 12 -19 12 -23 1 -23 -10 0 -11 -2
-2 -8 8 -5 11 -25 8 -55 -2 -30 0 -45 7 -41 5 4 5 -4 -2 -16 -9 -17 -9 -24 0
-30 17 -10 17 -15 0 -35 -9 -11 -10 -16 -2 -11 16 9 16 -16 0 -32 -9 -9 -8
-13 3 -17 16 -6 19 -100 5 -124 -6 -10 -5 -12 3 -7 8 5 10 0 7 -18 -3 -16 0
-26 7 -26 8 0 9 -3 1 -8 -13 -9 -13 -52 1 -52 5 0 3 -5 -5 -10 -13 -9 -13 -10
0 -10 13 0 13 -1 0 -10 -12 -7 -12 -10 -1 -10 7 0 11 -6 8 -14 -3 -7 0 -19 6
-26 10 -10 8 -12 -7 -6 -16 5 -17 4 -7 -8 8 -9 13 -48 13 -98 0 -110 0 -110
-14 -102 -7 4 -4 -2 6 -14 12 -14 14 -22 7 -22 -7 0 -9 -4 -6 -10 3 -5 1 -10
-6 -10 -8 0 -8 -4 1 -15 7 -8 8 -15 3 -15 -5 0 -9 -27 -8 -59 0 -41 -3 -57
-10 -51 -7 6 -11 2 -11 -10 0 -10 4 -16 9 -13 5 3 7 -10 6 -29 -3 -37 7 -62
22 -52 5 3 8 0 7 -8 -2 -8 7 -13 22 -13 14 0 31 -4 38 -8 7 -5 12 -4 12 3 0 6
11 3 26 -7 14 -9 36 -18 47 -19 36 -4 52 -9 59 -18 9 -13 58 -17 58 -5 0 5 6
4 14 -3 9 -9 11 -17 5 -25 -6 -6 -6 -13 -2 -16 10 -6 9 -84 0 -94 -12 -11 -7
-24 6 -17 8 5 7 2 -2 -10 -10 -11 -14 -41 -14 -89 1 -43 -4 -75 -11 -79 -7 -5
-6 -8 4 -8 11 0 12 -2 3 -8 -7 -5 -14 -21 -15 -38 -1 -16 -6 -35 -11 -41 -5
-7 -7 -19 -4 -27 3 -8 0 -20 -8 -26 -7 -6 -12 -22 -10 -35 1 -14 -1 -25 -5
-25 -4 0 -10 -9 -13 -20 -4 -15 -14 -20 -36 -20 -17 0 -31 -4 -31 -10 0 -5 -7
-10 -16 -10 -8 0 -13 -4 -9 -9 3 -5 -1 -16 -9 -24 -8 -8 -13 -17 -10 -20 8 -8
-6 -48 -14 -43 -4 2 -7 -18 -6 -45 0 -27 -3 -49 -8 -49 -5 0 -6 -4 -3 -10 3
-5 1 -10 -5 -10 -7 0 -10 -6 -7 -14 3 -8 -1 -17 -9 -20 -9 -3 -12 -10 -9 -16
3 -5 0 -10 -7 -11 -10 0 -10 -2 1 -6 9 -4 10 -7 2 -12 -11 -7 -22 -40 -24 -73
-1 -10 -6 -18 -13 -18 -6 0 -10 -14 -9 -31 1 -19 -4 -33 -12 -36 -12 -5 -12
-7 -1 -14 11 -7 11 -9 -1 -9 -7 0 -11 -6 -7 -15 3 -8 2 -14 -2 -14 -20 3 -23
-3 -11 -18 8 -9 9 -14 2 -10 -11 7 -30 -28 -25 -45 1 -5 -6 -8 -16 -8 -13 0
-14 -2 -4 -9 11 -6 10 -11 -3 -25 -9 -9 -14 -16 -10 -16 3 0 -1 -10 -9 -21 -8
-12 -12 -27 -10 -34 3 -7 -3 -15 -13 -19 -15 -6 -15 -9 -3 -16 12 -8 12 -10
-3 -15 -13 -6 -14 -11 -6 -26 7 -15 6 -21 -6 -25 -8 -3 -12 -10 -9 -15 3 -5 0
-9 -6 -9 -6 0 -8 -4 -5 -10 3 -5 1 -10 -6 -10 -8 0 -7 -5 2 -17 9 -11 10 -14
2 -10 -8 5 -15 -1 -19 -18 -3 -13 -10 -22 -15 -19 -5 3 -6 -3 -2 -12 4 -12 3
-15 -5 -10 -8 4 -10 2 -6 -7 3 -8 -2 -22 -11 -31 -9 -9 -14 -20 -11 -25 3 -5
-5 -20 -19 -35 -13 -14 -21 -26 -18 -26 3 0 -1 -8 -8 -17 -12 -14 -12 -16 1
-9 8 4 4 -2 -10 -14 -14 -12 -18 -18 -10 -14 12 6 13 4 3 -7 -7 -7 -13 -21
-13 -32 0 -11 -4 -15 -12 -11 -8 5 -9 2 -5 -9 4 -10 1 -17 -5 -17 -6 0 -8 -3
-5 -7 4 -3 1 -13 -6 -21 -10 -13 -9 -14 3 -7 12 7 12 5 -1 -11 -9 -10 -15 -27
-14 -37 2 -9 -1 -15 -5 -12 -5 3 -11 1 -14 -4 -4 -5 -1 -13 5 -17 8 -4 7 -9
-2 -15 -8 -4 -15 -13 -15 -19 -1 -5 -2 -15 -3 -21 0 -5 -6 -7 -12 -3 -8 4 -8
0 0 -15 11 -19 8 -25 -10 -23 -4 1 -4 -8 -1 -20 3 -14 1 -19 -6 -14 -9 5 -9 0
-2 -18 6 -17 6 -27 -2 -32 -7 -4 -8 -3 -4 4 4 7 2 12 -5 12 -6 0 -9 -8 -6 -20
3 -11 2 -20 -2 -20 -4 0 -7 -10 -8 -22 -1 -11 -8 -25 -15 -30 -11 -8 -11 -10
0 -15 10 -4 9 -9 -5 -19 -17 -13 -17 -14 2 -8 17 5 16 3 -5 -16 -14 -12 -18
-18 -10 -14 12 5 12 4 3 -6 -6 -7 -9 -18 -6 -25 6 -19 -38 -7 -55 14 -8 9 -11
10 -7 4 3 -7 2 -13 -4 -13 -5 0 -11 6 -13 12 -3 7 -11 13 -19 14 -26 2 -59 16
-59 25 0 5 -6 9 -14 9 -7 0 -34 12 -60 26 -25 14 -46 22 -46 18 0 -4 -8 2 -17
12 -10 10 -29 20 -42 22 -14 1 -34 10 -45 20 -14 12 -17 13 -11 2 7 -12 6 -13
-7 -3 -8 7 -18 10 -21 6 -4 -3 -7 -1 -7 6 0 7 -4 9 -10 6 -5 -3 -10 -1 -10 5
0 7 -6 10 -13 7 -7 -3 -21 1 -31 9 -11 7 -23 11 -27 8 -4 -2 -23 5 -41 16 -18
11 -41 20 -50 20 -10 0 -18 5 -18 12 0 6 -3 9 -6 5 -4 -3 -19 0 -35 9 -16 8
-32 15 -36 17 -5 1 -7 6 -5 11 2 5 -4 4 -12 -4 -9 -7 -16 -8 -16 -3 0 5 -20
15 -45 22 -25 7 -45 18 -45 23 0 5 -10 6 -21 3 -13 -5 -19 -3 -15 3 3 5 -1 13
-10 16 -8 3 -12 2 -9 -4 3 -6 -1 -7 -9 -4 -9 3 -16 11 -16 16 0 6 -7 7 -16 4
-8 -3 -12 -2 -9 4 5 9 -15 15 -37 11 -5 0 -8 4 -8 9 0 6 -9 10 -20 10 -11 0
-20 3 -20 8 0 4 -11 12 -25 19 -19 8 -24 8 -19 0 3 -7 -2 -3 -10 7 -12 15 -16
16 -16 5 -1 -12 -2 -12 -13 1 -7 8 -18 16 -26 18 -7 1 -20 9 -28 17 -17 17
-27 20 -18 5 3 -5 1 -10 -4 -10 -6 0 -11 7 -11 16 0 8 -4 13 -9 9 -5 -3 -17 2
-25 11 -9 8 -16 10 -16 4 0 -6 -9 -2 -21 9 -12 11 -28 17 -35 14 -10 -4 -12 0
-8 11 5 14 2 15 -19 7 -22 -9 -25 -8 -20 6 5 13 2 15 -15 11 -13 -4 -20 -2
-19 6 1 6 -4 10 -11 8 -7 -1 -15 4 -18 12 -3 8 -13 12 -23 9 -12 -3 -25 4 -34
17 -10 14 -22 20 -31 17 -10 -4 -16 -1 -16 8 0 14 -12 19 -32 16 -5 0 -8 4 -8
10 0 5 -4 8 -9 4 -5 -3 -16 1 -24 9 -8 8 -17 12 -21 9 -3 -4 -6 -1 -6 6 0 8
-7 11 -15 7 -14 -5 -20 5 -16 27 1 5 -3 6 -9 2 -6 -3 -8 -12 -4 -18 3 -7 -4
-1 -16 13 -12 14 -18 18 -14 10 5 -8 -4 -5 -20 8 -16 12 -33 19 -39 15 -5 -3
-7 -1 -3 5 4 6 -8 16 -29 23 -19 7 -35 17 -35 21 0 4 -9 8 -20 8 -11 0 -20 5
-20 10 0 6 -7 10 -15 10 -8 0 -15 5 -15 10 0 6 -7 10 -15 10 -8 0 -15 5 -15
11 0 5 -4 7 -10 4 -5 -3 -10 -1 -10 5 0 6 -4 8 -10 5 -5 -3 -10 -1 -10 4 0 6
-7 11 -16 11 -9 0 -12 5 -8 12 5 7 3 8 -6 3 -8 -5 -18 -1 -27 10 -7 11 -13 13
-13 6 0 -9 -5 -8 -16 3 -8 9 -20 14 -25 11 -5 -4 -9 -1 -9 6 0 7 -3 9 -7 6 -3
-4 -12 1 -19 11 -11 13 -13 14 -14 2 0 -10 -5 -7 -16 8 -8 12 -22 22 -31 22
-9 0 -22 8 -29 17 -7 10 -18 18 -26 19 -7 0 -21 2 -32 2 -11 1 -16 7 -13 15 4
10 -2 13 -19 9 -15 -3 -24 0 -24 9 0 7 -3 9 -6 6 -4 -3 -16 -1 -28 5 -11 7
-24 11 -28 10 -5 -1 -8 4 -8 11 0 8 -4 7 -10 -3 -8 -12 -10 -12 -10 5 0 17 -2
17 -10 5 -5 -8 -10 -10 -10 -3 0 6 -13 10 -30 9 -16 -1 -30 1 -30 5 0 4 -9 6
-20 4 -11 -2 -20 0 -20 6 0 5 -5 9 -11 9 -5 0 -8 -4 -5 -9 4 -5 -7 -4 -24 2
-16 6 -30 15 -30 19 0 4 -7 5 -15 2 -8 -4 -15 -1 -15 6 0 10 -3 10 -14 1 -11
-9 -16 -9 -22 0 -4 8 -3 9 4 5 7 -4 12 -1 12 9 0 9 4 14 9 11 5 -3 12 1 15 10
3 8 10 12 16 9 6 -3 13 1 16 9 3 9 10 13 15 10 5 -3 9 0 9 5 0 6 7 11 15 11 8
0 15 5 15 11 0 8 6 7 17 -2 15 -12 16 -12 8 1 -8 13 -7 13 8 1 13 -10 17 -10
17 -1 0 9 4 9 17 -1 13 -11 15 -11 9 -1 -7 11 -4 11 12 1 16 -10 23 -10 35 0
12 9 17 9 23 0 5 -8 3 -9 -6 -4 -9 6 -11 4 -6 -4 6 -9 13 -8 29 6 14 12 18 13
12 3 -7 -12 -6 -13 6 -4 8 6 22 10 32 9 9 -2 17 1 17 6 0 4 7 5 17 2 12 -5 14
-3 8 8 -7 11 -5 11 10 -1 10 -8 16 -9 11 -3 -5 10 7 12 49 9 35 -2 55 1 55 8
0 6 5 4 10 -4 6 -10 10 -11 10 -3 0 7 3 12 8 12 4 -1 9 0 12 1 5 2 47 6 88 9
13 0 21 5 18 9 -3 5 1 9 9 9 8 0 15 -4 15 -9 0 -5 12 -2 28 5 15 8 38 13 50
12 13 -1 26 3 28 10 3 6 18 11 34 10 17 -1 30 2 30 7 0 4 11 8 24 8 14 0 27 4
30 9 4 5 24 12 46 16 22 4 38 10 35 14 -2 4 9 7 25 6 16 -1 27 1 25 4 -2 4 8
12 22 18 22 10 24 10 19 -5 -5 -14 -3 -14 9 2 9 12 21 17 35 13 13 -3 23 0 27
9 3 8 9 11 14 8 5 -3 9 -1 9 5 0 6 6 8 14 5 8 -3 17 0 21 5 3 6 11 9 16 6 5
-4 9 -1 9 5 0 6 4 8 10 5 11 -7 53 19 45 27 -3 3 6 4 20 3 14 -2 25 1 25 7 0
6 7 8 15 4 8 -3 15 -1 15 5 0 6 5 7 10 4 6 -3 10 -1 10 5 0 7 7 10 15 6 9 -3
15 0 15 10 0 12 4 13 21 3 15 -8 19 -8 15 0 -5 7 4 14 23 17 17 4 31 10 31 15
0 5 7 5 17 2 12 -5 14 -3 8 7 -6 10 -4 12 8 7 9 -3 19 -2 22 4 4 5 11 7 16 4
5 -4 9 -1 9 5 0 6 4 9 9 5 5 -3 12 -1 16 4 3 5 14 8 25 6 12 -2 18 0 15 5 -7
11 7 20 38 22 14 1 23 6 20 12 -3 5 5 7 21 4 21 -4 24 -3 15 8 -8 10 -6 12 10
9 12 -2 21 0 21 6 0 5 3 8 8 8 20 -3 32 2 26 13 -4 7 -3 8 5 4 6 -4 18 -2 26
4 8 6 20 8 26 4 8 -5 9 -3 4 6 -6 10 -4 12 8 7 10 -4 16 -2 14 5 -1 7 5 13 13
13 25 2 50 17 44 26 -3 5 2 9 10 9 9 0 25 9 36 20 12 12 25 18 29 15 9 -5 26
24 22 39 -1 5 6 3 15 -5 10 -8 15 -9 11 -3 -3 6 5 17 18 24 13 7 22 18 18 23
-3 6 -1 7 4 4 6 -4 16 -1 22 7 7 8 23 17 37 20 14 4 22 11 19 16 -6 9 34 36
48 32 5 -1 6 2 3 7 -3 5 1 12 10 15 8 3 12 10 9 16 -3 5 0 10 7 10 20 0 50 39
41 53 -5 9 -3 9 9 0 18 -15 29 -7 21 15 -4 9 -2 13 4 9 7 -4 21 8 33 28 12 19
26 35 31 35 6 0 7 5 4 10 -3 6 1 10 9 10 9 0 16 5 16 11 0 6 7 9 14 6 10 -4
13 -1 9 9 -3 9 1 14 12 14 9 0 15 6 13 12 -6 18 19 41 34 32 9 -6 9 -3 -1 9
-8 11 -9 17 -3 17 7 0 9 7 5 17 -4 11 -3 14 5 9 7 -4 13 -2 13 3 1 6 2 17 3
24 1 6 8 11 14 9 10 -2 10 3 3 16 -7 14 -6 25 5 40 8 12 13 26 9 31 -3 5 -1
12 5 16 5 3 10 15 10 26 0 13 4 18 13 13 9 -5 9 -4 0 6 -12 13 -7 43 6 36 4
-3 5 11 3 31 -4 27 -1 34 8 28 9 -6 11 -4 4 6 -12 20 -14 39 -3 39 6 0 9 6 8
13 -3 25 1 38 11 32 6 -3 10 -1 10 4 0 6 -5 11 -11 11 -8 0 -9 4 0 13 6 8 8
17 4 20 -3 4 -1 7 5 7 6 0 9 7 5 17 -4 9 -2 14 3 10 6 -3 10 7 9 26 -1 18 6
40 14 50 13 15 12 17 -5 17 -16 0 -16 2 -4 10 8 5 15 22 16 37 2 39 7 57 19
65 6 5 4 8 -4 8 -11 0 -10 4 5 16 10 8 13 13 7 9 -7 -3 -13 -2 -13 3 0 6 8 13
17 16 10 4 13 10 8 14 -12 9 -16 44 -4 36 5 -3 9 2 9 10 0 9 5 16 11 16 8 0 8
4 0 14 -9 10 -9 16 -1 21 6 4 9 13 6 21 -3 8 -1 14 5 14 6 0 7 5 4 10 -3 6 0
10 7 10 10 0 10 2 -1 9 -8 6 -10 14 -5 22 11 18 15 36 17 79 1 19 6 41 10 47
4 7 9 32 11 56 1 23 5 47 8 52 3 6 5 31 5 56 -2 38 1 45 13 41 13 -5 13 -3 1
11 -8 10 -9 17 -3 17 6 0 9 9 7 20 -2 11 1 20 7 20 7 0 6 5 -1 14 -10 11 -8
17 6 25 12 7 13 10 4 11 -11 0 -11 3 0 17 12 15 12 16 -1 8 -12 -7 -13 -6 -4
6 6 8 11 29 10 47 0 17 2 32 7 32 4 0 7 5 7 11 0 5 -6 7 -12 4 -7 -4 -4 1 6 9
15 12 16 16 5 17 -11 0 -11 2 0 6 11 5 11 7 0 14 -12 7 -12 9 0 9 11 0 11 3 0
17 -8 9 -9 14 -3 10 7 -4 11 12 12 48 3 90 6 105 15 105 4 0 6 4 2 9 -3 5 -1
13 5 16 8 5 8 11 0 20 -8 9 -6 14 6 19 12 5 14 9 5 20 -9 10 -8 16 4 26 12 10
13 16 4 26 -7 9 -8 14 -1 14 5 0 12 9 15 20 3 11 0 20 -5 20 -7 0 -6 5 1 13 6
8 8 17 4 20 -3 4 -1 7 6 7 8 0 10 7 6 19 -3 11 -1 22 5 26 8 5 7 12 -2 23 -11
14 -10 15 6 9 16 -6 17 -5 6 8 -7 8 -8 15 -3 15 5 0 8 12 8 28 -1 15 3 35 7
45 10 19 28 23 28 6z m-5300 -2757 c0 -5 -7 -9 -15 -9 -8 0 -12 4 -9 9 3 4 9
8 15 8 5 0 9 -4 9 -8z m-53 -57 c0 -8 -4 -12 -9 -9 -5 3 -6 10 -3 15 9 13 12
11 12 -6z m-2 -83 c-3 -3 -11 0 -18 7 -9 10 -8 11 6 5 10 -3 15 -9 12 -12z
m731 -178 c-2 -19 -6 -37 -10 -41 -12 -12 -6 -25 9 -20 8 4 17 1 21 -5 4 -6 3
-8 -3 -5 -11 7 -28 -22 -18 -31 3 -3 5 1 5 8 0 7 3 11 6 8 3 -4 -2 -18 -11
-32 -10 -14 -14 -26 -10 -26 4 0 2 -7 -5 -15 -11 -13 -10 -14 4 -9 9 3 16 1
16 -5 0 -6 -10 -11 -22 -12 -13 0 -17 -3 -10 -6 10 -4 8 -12 -10 -31 -13 -15
-15 -20 -5 -13 9 8 20 11 24 7 3 -3 1 -6 -5 -6 -7 0 -12 -7 -12 -16 0 -9 -6
-14 -14 -11 -9 4 -13 -3 -12 -21 1 -18 -4 -26 -13 -24 -12 3 -12 0 -1 -13 11
-13 10 -15 -3 -9 -12 4 -15 0 -13 -20 2 -15 -1 -23 -7 -19 -6 4 -8 -2 -4 -16
6 -22 5 -23 -15 -4 -12 10 -18 12 -14 5 4 -7 2 -21 -6 -30 -11 -15 -11 -15 2
-5 13 10 16 9 16 -6 0 -12 -5 -17 -15 -13 -9 3 -12 1 -7 -7 4 -6 4 -10 -1 -9
-4 2 -19 -5 -33 -15 -13 -9 -20 -17 -14 -17 5 0 16 6 23 13 11 10 11 8 2 -11
-7 -12 -16 -20 -22 -17 -5 4 -9 1 -9 -5 0 -6 -4 -8 -10 -5 -6 4 -7 -1 -3 -12
6 -15 4 -16 -9 -5 -13 11 -16 10 -14 -5 0 -10 6 -22 11 -26 6 -5 4 -7 -5 -4
-8 2 -14 11 -12 18 1 8 -9 1 -23 -14 -14 -16 -25 -22 -26 -15 0 10 -2 10 -6 0
-2 -6 -10 -9 -15 -6 -6 4 -8 2 -5 -3 4 -6 0 -14 -9 -17 -10 -4 -13 -2 -8 7 5
9 4 9 -7 0 -7 -7 -17 -13 -22 -13 -4 0 -5 6 -1 13 4 6 -3 2 -15 -10 -26 -27
-25 -27 -42 -6 -12 14 -12 16 1 9 8 -4 7 -1 -3 7 -11 9 -14 16 -7 19 7 2 12
31 12 76 0 39 4 69 9 66 5 -3 9 0 9 6 0 6 5 8 10 5 6 -3 10 -1 10 4 0 6 -6 11
-12 11 -7 1 -4 6 8 13 12 7 19 17 17 24 -2 6 1 15 8 19 8 5 9 3 4 -6 -5 -8 -4
-11 3 -6 6 3 9 15 7 26 -2 11 1 20 7 20 6 0 8 9 5 19 -3 13 -1 18 8 14 10 -3
12 2 8 16 -5 19 4 26 30 22 4 0 7 4 7 10 0 6 -9 8 -22 4 -19 -5 -20 -4 -6 5 9
6 15 19 13 30 -2 11 0 18 5 15 5 -3 11 -1 15 5 3 5 -2 10 -12 11 -14 0 -14 2
5 9 12 5 22 12 22 15 0 4 -4 4 -9 1 -5 -3 -12 1 -15 10 -3 8 -2 13 2 10 4 -2
14 -1 22 5 11 6 12 9 2 9 -7 0 -10 5 -7 10 3 6 0 10 -7 10 -10 0 -10 2 0 9 8
5 12 17 10 27 -2 11 3 25 12 32 8 8 10 11 4 8 -15 -7 -39 20 -25 28 5 4 13 1
16 -4 5 -8 14 -5 28 7 19 17 20 17 14 0 -6 -15 -4 -16 13 -7 16 9 19 8 14 -7
-5 -15 -4 -16 5 -3 6 8 11 11 11 6 0 -6 5 -5 11 1 7 7 21 8 39 3 23 -7 28 -5
23 7 -5 13 -3 13 15 2 17 -11 24 -11 34 -1 9 9 15 9 27 -1 12 -10 14 -9 8 6
-4 10 -3 16 3 12 5 -3 8 -21 6 -41z m1611 -249 c0 -8 -4 -12 -9 -9 -5 3 -6 10
-3 15 9 13 12 11 12 -6z m-23 -11 c3 -8 2 -12 -4 -9 -6 3 -10 10 -10 16 0 14
7 11 14 -7z m-47 -20 c-3 -3 -12 -4 -19 -1 -8 3 -5 6 6 6 11 1 17 -2 13 -5z
m12633 -379 c5 3 10 2 10 -2 0 -5 28 -8 63 -7 34 1 68 -4 76 -10 11 -8 13 -8
8 0 -4 7 0 14 8 17 9 4 12 1 9 -8 -4 -10 0 -12 16 -8 17 4 19 8 8 15 -8 5 -2
6 17 2 40 -9 58 -24 46 -38 -6 -7 -6 -18 -1 -26 5 -8 5 -21 -1 -32 -7 -12 -6
-18 1 -18 6 0 9 -4 5 -9 -3 -5 -2 -12 3 -15 4 -2 7 -23 6 -46 0 -22 4 -44 9
-47 6 -4 7 -1 2 7 -5 8 -4 11 3 6 6 -3 9 -17 6 -31 -3 -16 2 -27 13 -34 14 -8
15 -11 3 -11 -12 0 -11 -3 3 -11 15 -9 16 -13 5 -27 -9 -10 -9 -13 -1 -9 7 5
17 -2 24 -15 12 -22 11 -22 -7 -8 -10 8 -4 -2 14 -23 18 -21 30 -42 27 -48 -4
-5 -1 -9 4 -9 6 0 11 -6 11 -14 0 -8 8 -17 18 -20 14 -5 17 -19 18 -86 1 -44
-3 -77 -7 -74 -5 3 -6 -2 -3 -10 3 -9 11 -13 17 -9 6 3 7 1 3 -6 -4 -6 -12 -9
-17 -6 -5 4 -9 0 -10 -7 0 -10 -2 -10 -6 0 -2 6 -15 12 -28 12 -32 0 -56 10
-49 21 3 5 -2 6 -11 3 -9 -4 -22 1 -31 12 -9 11 -12 12 -8 4 6 -11 2 -10 -13
3 -11 9 -23 14 -26 10 -4 -3 -7 -1 -7 6 0 16 -26 42 -34 34 -3 -4 -6 0 -6 8 0
9 -14 25 -31 38 -17 13 -28 25 -25 29 4 3 -6 19 -21 36 -25 28 -26 29 -3 11
25 -20 25 -20 10 0 -8 11 -23 26 -33 33 -9 7 -15 18 -12 23 4 5 1 9 -5 9 -6 0
-8 5 -5 10 3 6 0 10 -7 11 -10 0 -11 2 0 6 9 3 7 10 -9 24 -12 10 -17 19 -10
19 9 0 8 4 -1 14 -7 8 -15 13 -18 11 -3 -2 -6 11 -7 28 -1 17 -8 34 -14 38 -7
4 -9 14 -6 23 4 9 1 16 -6 16 -8 0 -6 4 3 10 12 8 12 10 -5 10 -17 0 -17 2 -5
10 12 8 12 10 1 10 -11 0 -11 3 -1 15 6 8 9 18 6 24 -3 5 -2 11 3 13 18 6 10
78 -9 78 -4 0 -11 7 -14 16 -5 14 -4 15 8 5 8 -7 20 -10 26 -6z m-1620 -290
c0 -7 -30 -13 -34 -7 -3 4 4 9 15 9 10 1 19 0 19 -2z m-12311 -178 c0 -9 -2
-8 -6 1 -2 6 -10 9 -15 6 -7 -4 -8 -2 -4 5 9 13 26 5 25 -12z m13541 -612 c0
-2 -9 -3 -19 -2 -11 0 -18 5 -15 9 4 6 34 0 34 -7z m-2890 -2580 c6 -7 21 -11
33 -8 20 4 20 3 4 -7 -14 -9 -22 -9 -33 1 -10 8 -61 12 -161 12 -81 0 -138 4
-127 7 36 13 273 9 284 -5z m80 -35 c12 -7 12 -12 2 -22 -9 -9 -12 -8 -12 6 0
9 -4 14 -10 11 -5 -3 -10 -1 -10 4 0 13 10 14 30 1z m-6846 -26 c3 -8 11 -12
17 -8 8 4 9 3 5 -4 -5 -9 -12 -8 -26 1 -21 12 -26 27 -11 27 5 0 12 -7 15 -16z"/>
<path d="M5590 6490 c0 -5 5 -10 11 -10 5 0 7 5 4 10 -3 6 -8 10 -11 10 -2 0
-4 -4 -4 -10z"/>
<path d="M17060 6096 c0 -2 8 -10 18 -17 15 -13 16 -12 3 4 -13 16 -21 21 -21
13z"/>
<path d="M4470 8080 c-8 -5 -12 -12 -9 -15 4 -3 12 1 19 10 14 17 11 19 -10 5z"/>
<path d="M3146 7738 c3 -5 10 -6 15 -3 13 9 11 12 -6 12 -8 0 -12 -4 -9 -9z"/>
<path d="M2335 7630 c-3 -5 -1 -10 4 -10 6 0 11 5 11 10 0 6 -2 10 -4 10 -3 0
-8 -4 -11 -10z"/>
<path d="M17175 7010 c3 -5 8 -10 11 -10 2 0 4 5 4 10 0 6 -5 10 -11 10 -5 0
-7 -4 -4 -10z"/>
<path d="M2365 5989 c-4 -6 -5 -12 -2 -15 2 -3 7 2 10 11 7 17 1 20 -8 4z"/>
<path d="M2410 5991 c0 -6 4 -13 10 -16 6 -3 7 1 4 9 -7 18 -14 21 -14 7z"/>
<path d="M3990 4196 c0 -2 8 -10 18 -17 15 -13 16 -12 3 4 -13 16 -21 21 -21
13z"/>
</g>
</svg>
