<svg width="28" height="20" viewBox="0 0 28 20" fill="none" xmlns="http://www.w3.org/2000/svg">
<path d="M26.4557 3.81759C26.3153 3.26503 26.0294 2.75875 25.6269 2.34989C25.2244 1.94103 24.7194 1.64407 24.1631 1.489C22.1305 1 14 1 14 1C14 1 5.86951 1 3.83689 1.53558C3.28058 1.69064 2.77565 1.9876 2.3731 2.39646C1.97056 2.80532 1.68466 3.3116 1.54428 3.86417C1.17228 5.89651 0.990319 7.95819 1.00068 10.0233C0.987415 12.1039 1.16939 14.1813 1.54428 16.229C1.69905 16.7644 1.99135 17.2514 2.39296 17.643C2.79456 18.0346 3.29189 18.3175 3.83689 18.4644C5.86951 19 14 19 14 19C14 19 22.1305 19 24.1631 18.4644C24.7194 18.3094 25.2244 18.0124 25.6269 17.6035C26.0294 17.1947 26.3153 16.6884 26.4557 16.1358C26.8248 14.1188 27.0068 12.0728 26.9993 10.0233C27.0126 7.94264 26.8306 5.86524 26.4557 3.81759Z" stroke="white" stroke-width="1.5" stroke-linecap="round" stroke-linejoin="round"/>
<path d="M11.341 13.8305L18.1361 10.0233L11.341 6.21604V13.8305Z" stroke="white" stroke-width="1.5" stroke-linecap="round" stroke-linejoin="round"/>
</svg>
